<svg width="111" height="115" viewBox="0 0 111 115" fill="none" xmlns="http://www.w3.org/2000/svg">
<g opacity="0.16">
<path d="M54.4913 6.21942C53.8722 5.59823 52.9113 5.48052 52.1609 5.93264L38.6785 14.0503C38.6208 14.0839 38.5882 14.1474 38.5351 14.1876C38.4578 14.2324 38.3834 14.2819 38.3117 14.337L0.557927 52.2161C-0.185976 52.9634 -0.185976 54.174 0.557927 54.9213L59.8839 114.44C60.6278 115.187 61.8354 115.187 62.5793 114.44L100.334 76.5605C100.389 76.4895 100.439 76.4138 100.483 76.3344C100.523 76.2812 100.585 76.2504 100.622 76.1915L108.712 62.6671C109.163 61.9142 109.045 60.9511 108.427 60.3299L54.4913 6.21942ZM61.2339 110.386L4.60237 53.5668L39.6598 18.3949L96.2913 75.2135L61.2339 110.386ZM98.6059 72.1243L42.7378 16.0698L52.8434 9.98211L104.674 61.9843L98.6059 72.1243Z" fill="url(#paint0_linear)"/>
<path d="M30.9155 36.3489C30.9155 41.6314 35.1843 45.9144 40.4493 45.9144C45.7153 45.9144 49.9832 41.6314 49.9832 36.3489C49.9832 31.0664 45.7153 26.7834 40.4493 26.7834C35.1871 26.7899 30.922 31.0682 30.9155 36.3489ZM40.4493 30.6096C43.6093 30.6096 46.1696 33.1794 46.1696 36.3489C46.1696 39.5184 43.6093 42.0882 40.4493 42.0882C37.2903 42.0882 34.729 39.5184 34.729 36.3489C34.729 33.1794 37.2903 30.6096 40.4493 30.6096Z" fill="url(#paint1_linear)"/>
<path d="M36.6357 59.3061C31.3707 59.3061 27.1019 63.5891 27.1019 68.8716C27.1019 74.1541 31.3707 78.4371 36.6357 78.4371C41.9017 78.4371 46.1696 74.1541 46.1696 68.8716C46.164 63.591 41.8989 59.3127 36.6357 59.3061ZM36.6357 74.6109C33.4767 74.6109 30.9154 72.0411 30.9154 68.8716C30.9154 65.7021 33.4767 63.1323 36.6357 63.1323C39.7957 63.1323 42.3561 65.7021 42.3561 68.8716C42.3561 72.0411 39.7957 74.6109 36.6357 74.6109Z" fill="url(#paint2_linear)"/>
<path d="M78.5852 84.1765C83.8511 84.1765 88.119 79.8935 88.119 74.611C88.119 69.3285 83.8511 65.0455 78.5852 65.0455C73.3201 65.0455 69.0513 69.3285 69.0513 74.611C69.0578 79.8916 73.3229 84.17 78.5852 84.1765ZM78.5852 68.8717C81.7451 68.8717 84.3055 71.4415 84.3055 74.611C84.3055 77.7805 81.7451 80.3503 78.5852 80.3503C75.4261 80.3503 72.8648 77.7805 72.8648 74.611C72.8648 71.4415 75.4261 68.8717 78.5852 68.8717Z" fill="url(#paint3_linear)"/>
<path d="M17.5685 47.8274C14.4094 47.8274 11.8481 50.3972 11.8481 53.5667C11.8481 56.7362 14.4094 59.306 17.5685 59.306C20.7284 59.306 23.2888 56.7362 23.2888 53.5667C23.2888 50.3972 20.7284 47.8274 17.5685 47.8274ZM17.5685 55.4798C16.5154 55.4798 15.6617 54.6232 15.6617 53.5667C15.6617 52.5102 16.5154 51.6536 17.5685 51.6536C18.6215 51.6536 19.4752 52.5102 19.4752 53.5667C19.4752 54.6232 18.6215 55.4798 17.5685 55.4798Z" fill="url(#paint4_linear)"/>
<path d="M36.636 51.6536C36.636 48.4841 34.0757 45.9143 30.9157 45.9143C27.7567 45.9143 25.1954 48.4841 25.1954 51.6536C25.1954 54.8231 27.7567 57.3929 30.9157 57.3929C34.0757 57.3929 36.636 54.8231 36.636 51.6536ZM29.0089 51.6536C29.0089 50.5971 29.8627 49.7405 30.9157 49.7405C31.9687 49.7405 32.8225 50.5971 32.8225 51.6536C32.8225 52.7101 31.9687 53.5667 30.9157 53.5667C29.8627 53.5667 29.0089 52.7101 29.0089 51.6536Z" fill="url(#paint5_linear)"/>
<path d="M59.517 63.1322C63.7299 63.1322 67.1441 59.7058 67.1441 55.4798C67.1441 51.2538 63.7299 47.8274 59.517 47.8274C55.3049 47.8274 51.8899 51.2538 51.8899 55.4798C51.8899 59.7058 55.3049 63.1322 59.517 63.1322ZM59.517 51.6536C61.623 51.6536 63.3305 53.3668 63.3305 55.4798C63.3305 57.5928 61.623 59.306 59.517 59.306C57.4109 59.306 55.7034 57.5928 55.7034 55.4798C55.7034 53.3668 57.4109 51.6536 59.517 51.6536Z" fill="url(#paint6_linear)"/>
<path d="M49.9833 53.5667C49.9833 50.3972 47.4229 47.8274 44.2629 47.8274C41.1039 47.8274 38.5426 50.3972 38.5426 53.5667C38.5426 56.7362 41.1039 59.306 44.2629 59.306C47.4229 59.306 49.9833 56.7362 49.9833 53.5667ZM42.3562 53.5667C42.3562 52.5102 43.2099 51.6536 44.2629 51.6536C45.316 51.6536 46.1697 52.5102 46.1697 53.5667C46.1697 54.6232 45.316 55.4798 44.2629 55.4798C43.2099 55.4798 42.3562 54.6232 42.3562 53.5667Z" fill="url(#paint7_linear)"/>
<path d="M57.6102 78.4372C60.7701 78.4372 63.3305 75.8674 63.3305 72.6979C63.3305 69.5284 60.7701 66.9586 57.6102 66.9586C54.4512 66.9586 51.8899 69.5284 51.8899 72.6979C51.8899 75.8674 54.4512 78.4372 57.6102 78.4372ZM57.6102 70.7848C58.6632 70.7848 59.517 71.6414 59.517 72.6979C59.517 73.7544 58.6632 74.611 57.6102 74.611C56.5572 74.611 55.7034 73.7544 55.7034 72.6979C55.7034 71.6414 56.5572 70.7848 57.6102 70.7848Z" fill="url(#paint8_linear)"/>
<path d="M49.9836 80.3501C46.8246 80.3501 44.2633 82.9199 44.2633 86.0895C44.2633 89.259 46.8246 91.8288 49.9836 91.8288C53.1436 91.8288 55.7039 89.259 55.7039 86.0895C55.7039 82.9199 53.1436 80.3501 49.9836 80.3501ZM49.9836 88.0026C48.9306 88.0026 48.0768 87.146 48.0768 86.0895C48.0768 85.033 48.9306 84.1764 49.9836 84.1764C51.0366 84.1764 51.8904 85.033 51.8904 86.0895C51.8904 87.146 51.0366 88.0026 49.9836 88.0026Z" fill="url(#paint9_linear)"/>
<path d="M55.7034 93.7419C55.7034 97.968 59.1185 101.394 63.3305 101.394C67.5435 101.394 70.9576 97.968 70.9576 93.7419C70.9576 89.5159 67.5435 86.0895 63.3305 86.0895C59.1185 86.0895 55.7034 89.5159 55.7034 93.7419ZM67.1441 93.7419C67.1441 95.8549 65.4366 97.5682 63.3305 97.5682C61.2245 97.5682 59.517 95.8549 59.517 93.7419C59.517 91.6289 61.2245 89.9157 63.3305 89.9157C65.4366 89.9157 67.1441 91.6289 67.1441 93.7419Z" fill="url(#paint10_linear)"/>
<path d="M105.28 11.4786C108.44 11.4786 111 8.90881 111 5.73931C111 2.5698 108.44 0 105.28 0C102.121 0 99.5594 2.5698 99.5594 5.73931C99.5594 8.90881 102.121 11.4786 105.28 11.4786ZM105.28 3.8262C106.333 3.8262 107.186 4.6828 107.186 5.73931C107.186 6.79581 106.333 7.65241 105.28 7.65241C104.227 7.65241 103.373 6.79581 103.373 5.73931C103.373 4.6828 104.227 3.8262 105.28 3.8262Z" fill="url(#paint11_linear)"/>
<path d="M78.5852 19.131C83.8511 19.131 88.119 14.848 88.119 9.56551C88.119 4.28299 83.8511 0 78.5852 0C73.3201 0 69.0513 4.28299 69.0513 9.56551C69.0578 14.8462 73.3229 19.1245 78.5852 19.131ZM78.5852 3.8262C81.7451 3.8262 84.3055 6.396 84.3055 9.56551C84.3055 12.735 81.7451 15.3048 78.5852 15.3048C75.4261 15.3048 72.8648 12.735 72.8648 9.56551C72.8648 6.396 75.4261 3.8262 78.5852 3.8262Z" fill="url(#paint12_linear)"/>
<path d="M97.6524 15.3047C90.2814 15.3047 84.305 21.2999 84.305 28.6964C84.305 36.0928 90.2814 42.0881 97.6524 42.0881C105.024 42.0881 111 36.0928 111 28.6964C110.991 21.3037 105.021 15.3131 97.6524 15.3047ZM97.6524 38.2619C92.3874 38.2619 88.1186 33.9789 88.1186 28.6964C88.1186 23.4139 92.3874 19.1309 97.6524 19.1309C102.918 19.1309 107.186 23.4139 107.186 28.6964C107.181 33.977 102.916 38.2553 97.6524 38.2619Z" fill="url(#paint13_linear)"/>
<path d="M97.6528 21.044C93.4408 21.044 90.0257 24.4704 90.0257 28.6964C90.0257 29.7529 90.8795 30.6095 91.9325 30.6095C92.9855 30.6095 93.8393 29.7529 93.8393 28.6964C93.8393 26.5834 95.5468 24.8702 97.6528 24.8702C98.7058 24.8702 99.5596 24.0136 99.5596 22.9571C99.5596 21.9006 98.7058 21.044 97.6528 21.044Z" fill="url(#paint14_linear)"/>
</g>
<defs>
<linearGradient id="paint0_linear" x1="55.5" y1="0" x2="55.5" y2="115" gradientUnits="userSpaceOnUse">
<stop stop-color="#42DC51"/>
<stop offset="1" stop-color="#043E09"/>
</linearGradient>
<linearGradient id="paint1_linear" x1="55.5" y1="0" x2="55.5" y2="115" gradientUnits="userSpaceOnUse">
<stop stop-color="#42DC51"/>
<stop offset="1" stop-color="#043E09"/>
</linearGradient>
<linearGradient id="paint2_linear" x1="55.5" y1="0" x2="55.5" y2="115" gradientUnits="userSpaceOnUse">
<stop stop-color="#42DC51"/>
<stop offset="1" stop-color="#043E09"/>
</linearGradient>
<linearGradient id="paint3_linear" x1="55.5" y1="0" x2="55.5" y2="115" gradientUnits="userSpaceOnUse">
<stop stop-color="#42DC51"/>
<stop offset="1" stop-color="#043E09"/>
</linearGradient>
<linearGradient id="paint4_linear" x1="55.5" y1="0" x2="55.5" y2="115" gradientUnits="userSpaceOnUse">
<stop stop-color="#42DC51"/>
<stop offset="1" stop-color="#043E09"/>
</linearGradient>
<linearGradient id="paint5_linear" x1="55.5" y1="0" x2="55.5" y2="115" gradientUnits="userSpaceOnUse">
<stop stop-color="#42DC51"/>
<stop offset="1" stop-color="#043E09"/>
</linearGradient>
<linearGradient id="paint6_linear" x1="55.5" y1="0" x2="55.5" y2="115" gradientUnits="userSpaceOnUse">
<stop stop-color="#42DC51"/>
<stop offset="1" stop-color="#043E09"/>
</linearGradient>
<linearGradient id="paint7_linear" x1="55.5" y1="0" x2="55.5" y2="115" gradientUnits="userSpaceOnUse">
<stop stop-color="#42DC51"/>
<stop offset="1" stop-color="#043E09"/>
</linearGradient>
<linearGradient id="paint8_linear" x1="55.5" y1="0" x2="55.5" y2="115" gradientUnits="userSpaceOnUse">
<stop stop-color="#42DC51"/>
<stop offset="1" stop-color="#043E09"/>
</linearGradient>
<linearGradient id="paint9_linear" x1="55.5" y1="0" x2="55.5" y2="115" gradientUnits="userSpaceOnUse">
<stop stop-color="#42DC51"/>
<stop offset="1" stop-color="#043E09"/>
</linearGradient>
<linearGradient id="paint10_linear" x1="55.5" y1="0" x2="55.5" y2="115" gradientUnits="userSpaceOnUse">
<stop stop-color="#42DC51"/>
<stop offset="1" stop-color="#043E09"/>
</linearGradient>
<linearGradient id="paint11_linear" x1="55.5" y1="0" x2="55.5" y2="115" gradientUnits="userSpaceOnUse">
<stop stop-color="#42DC51"/>
<stop offset="1" stop-color="#043E09"/>
</linearGradient>
<linearGradient id="paint12_linear" x1="55.5" y1="0" x2="55.5" y2="115" gradientUnits="userSpaceOnUse">
<stop stop-color="#42DC51"/>
<stop offset="1" stop-color="#043E09"/>
</linearGradient>
<linearGradient id="paint13_linear" x1="55.5" y1="0" x2="55.5" y2="115" gradientUnits="userSpaceOnUse">
<stop stop-color="#42DC51"/>
<stop offset="1" stop-color="#043E09"/>
</linearGradient>
<linearGradient id="paint14_linear" x1="55.5" y1="0" x2="55.5" y2="115" gradientUnits="userSpaceOnUse">
<stop stop-color="#42DC51"/>
<stop offset="1" stop-color="#043E09"/>
</linearGradient>
</defs>
</svg>
