<svg width="98" height="115" viewBox="0 0 98 115" fill="none" xmlns="http://www.w3.org/2000/svg">
<g opacity="0.16">
<path d="M96.2215 19.8579C80.4107 15.5225 64.5069 8.77193 50.2295 0.336071C49.4711 -0.112024 48.53 -0.112024 47.7719 0.336071C33.0826 9.01428 18.0382 15.3997 1.77848 19.8579C0.72809 20.1457 0 21.1012 0 22.1912V46.9085C0 72.3618 11.7336 89.2102 21.5772 98.8619C32.1745 109.253 44.5188 115 49.0007 115C53.4821 115 65.8264 109.253 76.4237 98.8619C86.2671 89.2104 98 72.3621 98 46.9085V22.191C98 21.1012 97.2719 20.1457 96.2215 19.8579ZM93.1655 46.9083C93.1655 70.6815 82.2215 86.403 73.04 95.4058C62.6189 105.624 51.4769 110.161 49.0007 110.161C46.5244 110.161 35.3817 105.624 24.9604 95.4058C15.7792 86.4028 4.83471 70.6815 4.83471 46.9083V24.0274C20.3836 19.6093 34.8642 13.4436 49.0011 5.22221C62.785 13.2255 77.9881 19.6978 93.1655 24.0265V46.9083Z" fill="url(#paint0_linear)"/>
<path d="M27.5743 23.7567C27.085 22.5135 25.6816 21.9028 24.4391 22.3927C20.1208 24.0954 15.6885 25.6627 11.2654 27.0513C10.2575 27.368 9.57156 28.3023 9.57156 29.3594V38.7011C9.57156 40.037 10.654 41.1201 11.9888 41.1201C13.3236 41.1201 14.406 40.037 14.406 38.7011V31.1273C18.374 29.8425 22.3376 28.4214 26.2113 26.8938C27.4535 26.4044 28.0638 24.9999 27.5743 23.7567Z" fill="url(#paint1_linear)"/>
<path d="M32.1662 24.2156C32.4905 24.2156 32.8198 24.1502 33.1356 24.0123L33.18 23.993C34.403 23.4566 34.9538 22.0319 34.4178 20.8085C33.8814 19.5846 32.4497 19.0309 31.2281 19.5669L31.189 19.5837C29.9653 20.1185 29.4128 21.5421 29.9472 22.7662C30.3438 23.675 31.2337 24.2156 32.1662 24.2156Z" fill="url(#paint2_linear)"/>
<path d="M77.8009 78.0029C76.6838 77.2722 75.1859 77.5865 74.4549 78.7048C72.463 81.7559 70.1261 84.6776 67.5082 87.3879C65.3554 89.6165 63.0225 91.6937 60.5745 93.5613C59.5131 94.3713 59.3089 95.8892 60.118 96.9518C60.594 97.576 61.3138 97.9043 62.0419 97.9043C62.5532 97.9043 63.0683 97.7429 63.5059 97.4086C66.1465 95.3937 68.6625 93.1536 70.9837 90.7508C73.8141 87.821 76.3436 84.6585 78.5023 81.3511C79.2328 80.2326 78.9184 78.7335 77.8009 78.0029Z" fill="url(#paint3_linear)"/>
<path d="M54.9605 97.3552L54.8218 97.4369C53.6666 98.1065 53.2718 99.5862 53.9407 100.742C54.3889 101.517 55.2002 101.95 56.0349 101.95C56.4457 101.95 56.8627 101.845 57.2435 101.624L57.4036 101.53C58.5556 100.854 58.9426 99.3726 58.2679 98.2197C57.5928 97.0672 56.1119 96.6807 54.9605 97.3552Z" fill="url(#paint4_linear)"/>
<path d="M32.5236 52.5628C31.0394 51.0772 29.0654 50.2597 26.966 50.2597C24.8665 50.2597 22.8923 51.0775 21.4074 52.5628C18.3431 55.6301 18.3431 60.6209 21.4074 63.6879L35.6811 77.9717C37.1655 79.4568 39.1395 80.2746 41.2391 80.2746C43.3388 80.2746 45.3128 79.4568 46.7975 77.9712L76.5946 48.1517C79.6587 45.0838 79.6587 40.0936 76.5942 37.0275C75.1097 35.5419 73.1357 34.7244 71.0359 34.7244C68.9362 34.7244 66.9622 35.5422 65.4776 37.0275L41.2389 61.2841L32.5236 52.5628ZM68.8963 40.4487C69.4675 39.8771 70.2277 39.5624 71.0361 39.5624C71.845 39.5624 72.6045 39.8771 73.1762 40.4487C74.3556 41.6291 74.3556 43.5504 73.1757 44.7311L43.379 74.5502C42.8078 75.1218 42.0476 75.4365 41.2391 75.4365C40.4307 75.4365 39.6705 75.1218 39.0991 74.5502L24.8259 60.2669C23.646 59.0861 23.646 57.1648 24.8255 55.9845C25.3969 55.4129 26.1571 55.0977 26.9657 55.0977C27.7744 55.0977 28.5341 55.4124 29.1053 55.984L39.5296 66.4162C39.9832 66.8697 40.5977 67.1246 41.2389 67.1246C41.8802 67.1246 42.4947 66.8699 42.9478 66.4162L68.8963 40.4487Z" fill="url(#paint5_linear)"/>
</g>
<defs>
<linearGradient id="paint0_linear" x1="49" y1="0" x2="49" y2="115" gradientUnits="userSpaceOnUse">
<stop stop-color="#42DC51"/>
<stop offset="1" stop-color="#043E09"/>
</linearGradient>
<linearGradient id="paint1_linear" x1="49" y1="0" x2="49" y2="115" gradientUnits="userSpaceOnUse">
<stop stop-color="#42DC51"/>
<stop offset="1" stop-color="#043E09"/>
</linearGradient>
<linearGradient id="paint2_linear" x1="49" y1="0" x2="49" y2="115" gradientUnits="userSpaceOnUse">
<stop stop-color="#42DC51"/>
<stop offset="1" stop-color="#043E09"/>
</linearGradient>
<linearGradient id="paint3_linear" x1="49" y1="0" x2="49" y2="115" gradientUnits="userSpaceOnUse">
<stop stop-color="#42DC51"/>
<stop offset="1" stop-color="#043E09"/>
</linearGradient>
<linearGradient id="paint4_linear" x1="49" y1="0" x2="49" y2="115" gradientUnits="userSpaceOnUse">
<stop stop-color="#42DC51"/>
<stop offset="1" stop-color="#043E09"/>
</linearGradient>
<linearGradient id="paint5_linear" x1="49" y1="0" x2="49" y2="115" gradientUnits="userSpaceOnUse">
<stop stop-color="#42DC51"/>
<stop offset="1" stop-color="#043E09"/>
</linearGradient>
</defs>
</svg>
