<svg width="123" height="115" viewBox="0 0 123 115" fill="none" xmlns="http://www.w3.org/2000/svg">
<g opacity="0.16">
<path d="M110.111 89.2657H99.5086C105.05 81.4849 108.147 72.0862 108.147 62.2848C108.147 60.2612 108.015 58.2251 107.756 56.2329C107.557 54.704 106.54 53.4099 105.103 52.8557C103.661 52.2998 102.03 52.5773 100.847 53.5804C99.6722 54.5771 98.4403 55.5132 97.1623 56.3806C98.3149 41.254 93.5412 26.413 83.7975 15.1744C75.5995 5.71836 64.7262 0.0458063 54.7118 0C54.7015 0 54.6916 0 54.6815 0C53.2901 0 52.2283 0.437918 51.5256 1.302C50.162 2.97885 50.7025 5.49244 51.4506 8.97156C52.2242 12.5684 53.2834 17.4944 52.5072 22.9334C51.5868 29.3827 48.3631 35.1481 42.6518 40.5592C40.8882 42.2298 39.2551 43.8968 37.7769 45.5344C35.3996 42.1677 33.531 38.5008 32.2107 34.6058C31.7201 33.1597 30.4779 32.0985 28.9682 31.8366C27.4415 31.5716 25.8947 32.1604 24.9311 33.3729C19.2683 40.5007 15.8481 49.0516 15.0406 58.1014C14.9525 59.0909 15.6845 59.9645 16.6757 60.0526C17.6637 60.1401 18.5418 59.4103 18.6302 58.4206C19.3749 50.0725 22.5299 42.1843 27.7543 35.6085C27.9556 35.355 28.2153 35.3572 28.3508 35.3807C28.5051 35.4073 28.7073 35.4949 28.797 35.7591C30.4815 40.7269 32.9871 45.3518 36.2449 49.5056C36.5791 49.9315 37.0877 50.185 37.6297 50.1951C38.18 50.2078 38.6893 49.9713 39.0394 49.5584C40.7988 47.4817 42.8485 45.3317 45.1322 43.1685C51.368 37.2604 55.0496 30.6231 56.0746 23.4408C56.9412 17.3668 55.8039 12.0782 54.9737 8.2166C54.6176 6.56134 54.1367 4.3245 54.3164 3.62589C54.3889 3.61174 54.5124 3.59735 54.695 3.59735C63.6846 3.63836 73.5452 8.84638 81.0725 17.5285C90.933 28.9021 95.3499 44.2367 93.1905 59.6C93.0953 60.2775 93.3935 60.9505 93.9597 61.3359C94.5257 61.7213 95.2618 61.7529 95.8595 61.4167C98.4504 59.9588 100.914 58.2445 103.18 56.3211C103.428 56.1118 103.677 56.1626 103.805 56.2113C103.928 56.259 104.142 56.3854 104.182 56.6962C104.421 58.5354 104.543 60.4156 104.543 62.2846C104.543 75.7564 98.2078 88.4064 87.5055 96.5192C87.3761 96.2537 87.2355 95.9949 87.0885 95.74C90.9565 90.3727 93.0033 84.0414 93.0033 77.4009C93.0033 76.0349 92.9144 74.6597 92.7393 73.3143C92.5788 72.0804 91.7584 71.0362 90.5983 70.589C89.4344 70.1403 88.1191 70.364 87.1661 71.1727C86.7245 71.5475 86.2705 71.909 85.8054 72.2562C86.0978 65.6935 84.7433 59.2523 81.8223 53.4325C81.3769 52.5442 80.2946 52.1851 79.4046 52.63C78.515 53.0749 78.1551 54.1558 78.6008 55.0438C81.7522 61.3234 82.8887 68.4102 81.8869 75.5382C81.7918 76.216 82.0899 76.8887 82.6562 77.2741C83.2226 77.6597 83.9587 77.6909 84.5559 77.3549C86.1972 76.4316 87.7621 75.3559 89.2124 74.1549C89.3368 75.2264 89.3998 76.3167 89.3998 77.4009C89.3998 82.9337 87.7962 88.2237 84.7553 92.7873C82.5094 90.6677 79.504 89.3451 76.1938 89.2729C77.8099 77.3781 74.161 68.632 70.7446 63.3297C69.892 62.0062 68.3925 61.2706 66.824 61.4119C65.26 61.5524 63.9152 62.5422 63.3137 63.9948C61.94 67.3125 58.6509 72.1752 50.7813 76.4989C43.6872 80.3968 41.4816 85.4002 40.9848 89.2655H36.2301C34.4879 85.5631 33.6021 81.5832 33.5997 77.417C33.5961 71.1861 35.598 65.3126 39.3942 60.4049C40.5295 63.6171 42.1766 66.6117 44.2938 69.3112C44.6279 69.7371 45.1365 69.9906 45.6785 70.0007C46.2241 70.0129 46.7382 69.7769 47.0882 69.364C48.2401 68.0044 49.5826 66.5966 51.078 65.18C60.8762 55.8969 58.8571 46.5068 57.7722 41.4624C57.6018 40.6698 57.4005 39.7337 57.3426 39.1435C63.2666 39.3064 69.657 42.8776 74.5086 48.7561C75.1411 49.5226 76.2765 49.6325 77.045 49.0008C77.8128 48.3691 77.9223 47.2354 77.2898 46.4687C71.6693 39.6582 64.0867 35.573 57.0065 35.5407C55.6117 35.5395 54.8274 36.1282 54.4211 36.6275C53.3343 37.9638 53.7179 39.7481 54.2489 42.2176C55.3158 47.1793 56.9282 54.6779 48.5976 62.5709C47.6215 63.4955 46.7045 64.4193 45.856 65.332C44.5179 63.3235 43.4518 61.1594 42.677 58.8741C42.2808 57.7052 41.2771 56.8476 40.0575 56.6358C38.8277 56.4228 37.5795 56.8967 36.8028 57.8745C32.3459 63.484 29.9921 70.2427 29.9964 77.4196C29.9988 81.5518 30.7717 85.5242 32.296 89.266H27.9453C22.5727 82.6065 19.348 74.5736 18.6187 66.0206C18.5341 65.0308 17.6609 64.2974 16.6709 64.3809C15.6792 64.4653 14.944 65.3359 15.0284 66.3256C15.738 74.6497 18.6297 82.5192 23.4294 89.266H12.8891C5.78197 89.2657 0 95.0378 0 102.133C0 109.228 5.78197 115 12.8891 115H110.111C117.218 115 123 109.228 123 102.133C123 95.0378 117.218 89.2657 110.111 89.2657ZM85.1959 102.133C85.1959 107.244 81.0302 111.403 75.9101 111.403C70.79 111.403 66.6246 107.244 66.6246 102.133C66.6246 97.0214 70.7902 92.8631 75.9101 92.8631C81.0302 92.8631 85.1959 97.0214 85.1959 102.133ZM3.60352 102.133C3.60352 101.402 3.69121 100.691 3.85241 100.009C6.61775 99.2177 13.5017 98.7769 24.5405 101.672C29.6404 103.01 33.6535 103.417 36.6493 103.417C41.1357 103.417 43.3396 102.504 43.488 102.44C44.4016 102.046 44.8319 100.984 44.4374 100.072C44.0435 99.1601 42.9931 98.7354 42.0783 99.1292C42.0656 99.1342 40.7722 99.6472 38.0998 99.7899C35.6143 99.923 31.4047 99.7532 25.4562 98.1927C15.9545 95.7004 9.65456 95.6057 5.91578 96.0213C7.61881 94.0869 10.1127 92.8626 12.8891 92.8626H47.8481C48.8433 92.8626 49.6498 92.0573 49.6498 91.0639C49.6498 90.0706 48.8433 89.2652 47.8481 89.2652H44.6272C45.2778 85.4041 47.9257 82.1741 52.5194 79.6502C61.3058 74.8228 65.0503 69.2191 66.6447 65.3685C66.7677 65.0714 67.0128 65.0066 67.148 64.9944C67.2847 64.9836 67.5391 65.0025 67.7148 65.2752C70.8443 70.1326 74.1843 78.2079 72.5536 89.2652H55.7736C54.7783 89.2652 53.9719 90.0706 53.9719 91.0639C53.9719 92.0573 54.7783 92.8626 55.7736 92.8626H66.9849C64.5444 95.2052 63.021 98.4937 63.021 102.132C63.021 102.633 63.053 103.126 63.109 103.612C62.1406 104.246 59.8716 105.438 56.4881 105.438C55.4928 105.438 54.6863 106.243 54.6863 107.237C54.6863 108.23 55.4928 109.035 56.4881 109.035C59.892 109.035 62.4563 108.076 64.0716 107.215C64.7575 108.801 65.7549 110.221 66.9852 111.402H35.3952C27.3039 104.413 11.8294 104.043 11.1599 104.031C10.1554 104.006 9.34345 104.802 9.32471 105.796C9.30622 106.789 10.0978 107.609 11.0926 107.628C11.131 107.628 15.0108 107.71 19.7596 108.629C23.2228 109.299 26.2389 110.236 28.7167 111.402H12.8891C7.76919 111.403 3.60352 107.244 3.60352 102.133ZM84.8353 111.403C87.2759 109.06 88.7992 105.772 88.7992 102.133C88.7992 101.458 88.7464 100.796 88.6457 100.149C91.6265 98.0164 94.3133 95.5673 96.6715 92.8628H101.185C98.7449 95.2054 97.2216 98.4939 97.2216 102.132C97.2216 105.771 98.7449 109.06 101.185 111.402L84.8353 111.403ZM110.111 111.403C104.991 111.403 100.825 107.244 100.825 102.133C100.825 97.0214 104.991 92.8631 110.111 92.8631C115.231 92.8631 119.397 97.0214 119.397 102.133C119.397 107.244 115.231 111.403 110.111 111.403Z" fill="url(#paint0_linear)"/>
<path d="M115.475 100.334C114.48 100.334 113.674 101.139 113.674 102.133C113.674 104.094 112.076 105.689 110.111 105.689C108.147 105.689 106.549 104.094 106.549 102.133C106.549 100.172 108.147 98.5763 110.111 98.5763C111.106 98.5763 111.913 97.771 111.913 96.7776C111.913 95.7843 111.106 94.9789 110.111 94.9789C106.16 94.9789 102.945 98.188 102.945 102.133C102.945 106.077 106.16 109.287 110.111 109.287C114.062 109.287 117.277 106.077 117.277 102.133C117.277 101.139 116.47 100.334 115.475 100.334Z" fill="url(#paint1_linear)"/>
<path d="M68.7442 102.133C68.7442 106.077 71.9587 109.287 75.9101 109.287C79.8615 109.287 83.0763 106.077 83.0763 102.133C83.0763 101.139 82.2699 100.334 81.2746 100.334C80.2793 100.334 79.4728 101.139 79.4728 102.133C79.4728 104.094 77.8748 105.689 75.9101 105.689C73.9457 105.689 72.3477 104.094 72.3477 102.133C72.3477 100.172 73.9457 98.5763 75.9101 98.5763C76.9054 98.5763 77.7119 97.771 77.7119 96.7776C77.7119 95.7843 76.9054 94.9789 75.9101 94.9789C71.9587 94.9789 68.7442 98.188 68.7442 102.133Z" fill="url(#paint2_linear)"/>
<path d="M58.006 100.453H58.0168C59.0068 100.453 59.8125 99.6546 59.8183 98.6646C59.8241 97.6712 59.0222 96.8613 58.0271 96.8556H58.0069C58.0031 96.8556 57.9997 96.8556 57.9961 96.8556C57.0061 96.8556 56.2104 97.6542 56.2047 98.644C56.1989 99.6371 57.0109 100.447 58.006 100.453Z" fill="url(#paint3_linear)"/>
<path d="M102.858 37.339C107.807 37.339 111.833 33.3195 111.833 28.3787V24.0288C111.833 22.3757 110.486 21.031 108.83 21.031C103.881 21.031 99.8546 25.0504 99.8546 29.991V34.3412C99.8546 35.9941 101.202 37.339 102.858 37.339ZM103.458 29.991C103.458 27.2367 105.549 24.9605 108.23 24.6614V28.3787C108.23 31.1331 106.139 33.4092 103.458 33.7083V29.991Z" fill="url(#paint4_linear)"/>
<path d="M37.2761 20.6951C38.9321 20.6951 40.2791 19.3505 40.2791 17.6973V13.3474C40.2791 8.40658 36.2525 4.38714 31.3034 4.38714C29.6475 4.38714 28.3005 5.73183 28.3005 7.38493V11.7349C28.3005 16.6755 32.327 20.6951 37.2761 20.6951ZM31.904 8.01759C34.5845 8.31665 36.6755 10.5928 36.6755 13.3472V17.0645C33.995 16.7654 31.904 14.4892 31.904 11.7349V8.01759Z" fill="url(#paint5_linear)"/>
<path d="M14.4571 23.006C15.0022 22.3421 15.9832 22.2451 16.6483 22.7892L114.463 102.824C115.128 103.369 115.225 104.348 114.68 105.012C114.135 105.676 113.154 105.773 112.489 105.229L14.6743 25.1934C14.0093 24.6493 13.912 23.6699 14.4571 23.006Z" fill="url(#paint6_linear)"/>
</g>
<defs>
<linearGradient id="paint0_linear" x1="61.5" y1="0" x2="61.5" y2="115" gradientUnits="userSpaceOnUse">
<stop stop-color="#42DC51"/>
<stop offset="1" stop-color="#043E09"/>
</linearGradient>
<linearGradient id="paint1_linear" x1="61.5" y1="0" x2="61.5" y2="115" gradientUnits="userSpaceOnUse">
<stop stop-color="#42DC51"/>
<stop offset="1" stop-color="#043E09"/>
</linearGradient>
<linearGradient id="paint2_linear" x1="61.5" y1="0" x2="61.5" y2="115" gradientUnits="userSpaceOnUse">
<stop stop-color="#42DC51"/>
<stop offset="1" stop-color="#043E09"/>
</linearGradient>
<linearGradient id="paint3_linear" x1="61.5" y1="0" x2="61.5" y2="115" gradientUnits="userSpaceOnUse">
<stop stop-color="#42DC51"/>
<stop offset="1" stop-color="#043E09"/>
</linearGradient>
<linearGradient id="paint4_linear" x1="61.5" y1="0" x2="61.5" y2="115" gradientUnits="userSpaceOnUse">
<stop stop-color="#42DC51"/>
<stop offset="1" stop-color="#043E09"/>
</linearGradient>
<linearGradient id="paint5_linear" x1="61.5" y1="0" x2="61.5" y2="115" gradientUnits="userSpaceOnUse">
<stop stop-color="#42DC51"/>
<stop offset="1" stop-color="#043E09"/>
</linearGradient>
<linearGradient id="paint6_linear" x1="61.5" y1="0" x2="61.5" y2="115" gradientUnits="userSpaceOnUse">
<stop stop-color="#42DC51"/>
<stop offset="1" stop-color="#043E09"/>
</linearGradient>
</defs>
</svg>
