<svg width="115" height="115" viewBox="0 0 115 115" fill="none" xmlns="http://www.w3.org/2000/svg">
<g opacity="0.16">
<path d="M19.1638 28.7841C19.1638 27.6455 18.8266 26.5325 18.1949 25.5858C17.5631 24.639 16.6653 23.9012 15.6147 23.4655C14.5642 23.0297 13.4083 22.9157 12.293 23.1379C11.1778 23.36 10.1534 23.9083 9.34939 24.7134C8.54536 25.5185 7.99781 26.5443 7.77598 27.661C7.55415 28.7777 7.668 29.9352 8.10314 30.9871C8.53827 32.039 9.27515 32.9381 10.2206 33.5707C11.166 34.2033 12.2776 34.5409 13.4146 34.5409C14.9389 34.5392 16.4002 33.9321 17.478 32.8529C18.5558 31.7736 19.1621 30.3103 19.1638 28.7841ZM11.4983 28.7841C11.4983 28.4045 11.6107 28.0335 11.8212 27.718C12.0318 27.4024 12.3311 27.1564 12.6813 27.0112C13.0314 26.866 13.4168 26.828 13.7885 26.902C14.1602 26.976 14.5017 27.1588 14.7697 27.4272C15.0377 27.6955 15.2203 28.0375 15.2942 28.4097C15.3681 28.7819 15.3302 29.1678 15.1851 29.5184C15.0401 29.8691 14.7945 30.1688 14.4793 30.3796C14.1642 30.5905 13.7937 30.703 13.4146 30.703C12.9066 30.7024 12.4195 30.5001 12.0602 30.1403C11.7009 29.7806 11.4988 29.2928 11.4983 28.7841Z" fill="url(#paint0_linear)"/>
<path d="M42.1603 9.5947C38.3701 9.5947 34.6649 10.7201 31.5135 12.8287C28.362 14.9372 25.9057 17.9342 24.4553 21.4406C23.0048 24.947 22.6253 28.8054 23.3648 32.5278C24.1042 36.2501 25.9294 39.6694 28.6095 42.353C31.2896 45.0367 34.7042 46.8643 38.4216 47.6048C42.139 48.3452 45.9922 47.9652 49.494 46.5128C52.9957 45.0604 55.9887 42.6008 58.0944 39.4451C60.2001 36.2895 61.3241 32.5794 61.3241 28.7841C61.3183 23.6965 59.2974 18.819 55.7048 15.2215C52.1121 11.6241 47.2411 9.60047 42.1603 9.5947ZM42.1603 44.1356C39.1281 44.1356 36.164 43.2353 33.6428 41.5484C31.1217 39.8616 29.1567 37.464 27.9963 34.6589C26.8359 31.8537 26.5323 28.7671 27.1239 25.7892C27.7154 22.8113 29.1756 20.0759 31.3196 17.9289C33.4637 15.782 36.1954 14.3199 39.1694 13.7276C42.1433 13.1352 45.2258 13.4392 48.0272 14.6011C50.8286 15.7631 53.223 17.7307 54.9076 20.2552C56.5922 22.7798 57.4913 25.7478 57.4913 28.7841C57.4867 32.8542 55.8701 36.7562 52.9959 39.6342C50.1218 42.5122 46.2249 44.131 42.1603 44.1356Z" fill="url(#paint1_linear)"/>
<path d="M42.1603 23.0273C42.6684 23.0278 43.1555 23.2302 43.5147 23.5899C43.874 23.9497 44.0761 24.4375 44.0767 24.9462C44.0767 25.4551 44.2786 25.9432 44.638 26.3031C44.9974 26.663 45.4848 26.8652 45.993 26.8652C46.5013 26.8652 46.9887 26.663 47.3481 26.3031C47.7075 25.9432 47.9094 25.4551 47.9094 24.9462C47.9079 23.7562 47.5387 22.5958 46.8525 21.6242C46.1663 20.6526 45.1967 19.9174 44.0767 19.5195V19.1894C44.0767 18.6805 43.8748 18.1924 43.5154 17.8325C43.156 17.4726 42.6685 17.2705 42.1603 17.2705C41.652 17.2705 41.1646 17.4726 40.8052 17.8325C40.4458 18.1924 40.2439 18.6805 40.2439 19.1894V19.5195C38.9659 19.9725 37.8888 20.8633 37.2031 22.0345C36.5173 23.2056 36.267 24.5817 36.4963 25.9198C36.7256 27.2578 37.4197 28.4717 38.4561 29.3469C39.4925 30.2222 40.8045 30.7025 42.1603 30.703C42.5393 30.703 42.9098 30.8156 43.225 31.0264C43.5401 31.2373 43.7857 31.537 43.9308 31.8876C44.0758 32.2383 44.1138 32.6241 44.0398 32.9963C43.9659 33.3686 43.7834 33.7105 43.5154 33.9789C43.2474 34.2472 42.9059 34.43 42.5342 34.504C42.1624 34.5781 41.7771 34.5401 41.4269 34.3948C41.0768 34.2496 40.7775 34.0036 40.5669 33.6881C40.3563 33.3725 40.2439 33.0015 40.2439 32.622C40.2439 32.113 40.042 31.6249 39.6826 31.2651C39.3232 30.9052 38.8358 30.703 38.3275 30.703C37.8193 30.703 37.3318 30.9052 36.9725 31.2651C36.6131 31.6249 36.4112 32.113 36.4112 32.622C36.4127 33.812 36.7819 34.9724 37.4681 35.944C38.1543 36.9156 39.1239 37.6508 40.2439 38.0487V38.3788C40.2439 38.8877 40.4458 39.3758 40.8052 39.7357C41.1646 40.0956 41.652 40.2977 42.1603 40.2977C42.6685 40.2977 43.156 40.0956 43.5154 39.7357C43.8748 39.3758 44.0767 38.8877 44.0767 38.3788V38.0487C45.3547 37.5956 46.4317 36.7049 47.1175 35.5337C47.8032 34.3626 48.0536 32.9865 47.8243 31.6484C47.595 30.3104 46.9009 29.0965 45.8645 28.2213C44.8281 27.346 43.5161 26.8657 42.1603 26.8652C41.652 26.8652 41.1646 26.663 40.8052 26.3031C40.4458 25.9432 40.2439 25.4551 40.2439 24.9462C40.2439 24.4373 40.4458 23.9492 40.8052 23.5893C41.1646 23.2294 41.652 23.0273 42.1603 23.0273Z" fill="url(#paint2_linear)"/>
<path d="M51.7422 51.8114H13.4146C12.9064 51.8114 12.4189 52.0135 12.0596 52.3734C11.7002 52.7333 11.4983 53.2214 11.4983 53.7303C11.4983 54.2392 11.7002 54.7273 12.0596 55.0872C12.4189 55.4471 12.9064 55.6492 13.4146 55.6492H51.7422C52.2504 55.6492 52.7379 55.4471 53.0973 55.0872C53.4567 54.7273 53.6586 54.2392 53.6586 53.7303C53.6586 53.2214 53.4567 52.7333 53.0973 52.3734C52.7379 52.0135 52.2504 51.8114 51.7422 51.8114Z" fill="url(#paint3_linear)"/>
<path d="M51.7422 59.4871H13.4146C12.9064 59.4871 12.4189 59.6893 12.0596 60.0492C11.7002 60.409 11.4983 60.8971 11.4983 61.4061C11.4983 61.915 11.7002 62.4031 12.0596 62.763C12.4189 63.1228 12.9064 63.325 13.4146 63.325H51.7422C52.2504 63.325 52.7379 63.1228 53.0973 62.763C53.4567 62.4031 53.6586 61.915 53.6586 61.4061C53.6586 60.8971 53.4567 60.409 53.0973 60.0492C52.7379 59.6893 52.2504 59.4871 51.7422 59.4871Z" fill="url(#paint4_linear)"/>
<path d="M51.7422 67.1629H13.4146C12.9064 67.1629 12.4189 67.3651 12.0596 67.7249C11.7002 68.0848 11.4983 68.5729 11.4983 69.0818C11.4983 69.5908 11.7002 70.0788 12.0596 70.4387C12.4189 70.7986 12.9064 71.0008 13.4146 71.0008H51.7422C52.2504 71.0008 52.7379 70.7986 53.0973 70.4387C53.4567 70.0788 53.6586 69.5908 53.6586 69.0818C53.6586 68.5729 53.4567 68.0848 53.0973 67.7249C52.7379 67.3651 52.2504 67.1629 51.7422 67.1629Z" fill="url(#paint5_linear)"/>
<path d="M51.7422 74.8386H13.4146C12.9064 74.8386 12.4189 75.0408 12.0596 75.4007C11.7002 75.7605 11.4983 76.2486 11.4983 76.7576C11.4983 77.2665 11.7002 77.7546 12.0596 78.1145C12.4189 78.4743 12.9064 78.6765 13.4146 78.6765H51.7422C52.2504 78.6765 52.7379 78.4743 53.0973 78.1145C53.4567 77.7546 53.6586 77.2665 53.6586 76.7576C53.6586 76.2486 53.4567 75.7605 53.0973 75.4007C52.7379 75.0408 52.2504 74.8386 51.7422 74.8386Z" fill="url(#paint6_linear)"/>
<path d="M51.7422 82.5144H13.4146C12.9064 82.5144 12.4189 82.7166 12.0596 83.0764C11.7002 83.4363 11.4983 83.9244 11.4983 84.4333C11.4983 84.9423 11.7002 85.4304 12.0596 85.7902C12.4189 86.1501 12.9064 86.3523 13.4146 86.3523H51.7422C52.2504 86.3523 52.7379 86.1501 53.0973 85.7902C53.4567 85.4304 53.6586 84.9423 53.6586 84.4333C53.6586 83.9244 53.4567 83.4363 53.0973 83.0764C52.7379 82.7166 52.2504 82.5144 51.7422 82.5144Z" fill="url(#paint7_linear)"/>
<path d="M70.9059 82.5144H63.2404C62.7322 82.5144 62.2447 82.7166 61.8854 83.0764C61.526 83.4363 61.3241 83.9244 61.3241 84.4333C61.3241 84.9423 61.526 85.4304 61.8854 85.7902C62.2447 86.1501 62.7322 86.3523 63.2404 86.3523H70.9059C71.4142 86.3523 71.9016 86.1501 72.261 85.7902C72.6204 85.4304 72.8223 84.9423 72.8223 84.4333C72.8223 83.9244 72.6204 83.4363 72.261 83.0764C71.9016 82.7166 71.4142 82.5144 70.9059 82.5144Z" fill="url(#paint8_linear)"/>
<path d="M51.7422 90.1901H13.4146C12.9064 90.1901 12.4189 90.3923 12.0596 90.7522C11.7002 91.1121 11.4983 91.6002 11.4983 92.1091C11.4983 92.618 11.7002 93.1061 12.0596 93.466C12.4189 93.8259 12.9064 94.028 13.4146 94.028H51.7422C52.2504 94.028 52.7379 93.8259 53.0973 93.466C53.4567 93.1061 53.6586 92.618 53.6586 92.1091C53.6586 91.6002 53.4567 91.1121 53.0973 90.7522C52.7379 90.3923 52.2504 90.1901 51.7422 90.1901Z" fill="url(#paint9_linear)"/>
<path d="M70.9059 90.1901H63.2404C62.7322 90.1901 62.2447 90.3923 61.8854 90.7522C61.526 91.1121 61.3241 91.6002 61.3241 92.1091C61.3241 92.618 61.526 93.1061 61.8854 93.466C62.2447 93.8259 62.7322 94.028 63.2404 94.028H70.9059C71.4142 94.028 71.9016 93.8259 72.261 93.466C72.6204 93.1061 72.8223 92.618 72.8223 92.1091C72.8223 91.6002 72.6204 91.1121 72.261 90.7522C71.9016 90.3923 71.4142 90.1901 70.9059 90.1901Z" fill="url(#paint10_linear)"/>
<path d="M84.3236 34.5465C80.5334 34.5465 76.8283 35.6719 73.6768 37.7805C70.5253 39.889 68.0691 42.886 66.6186 46.3924C65.1682 49.8988 64.7886 53.7572 65.5281 57.4795C66.2675 61.2019 68.0927 64.6212 70.7728 67.3048C73.4529 69.9885 76.8675 71.8161 80.585 72.5566C84.3024 73.297 88.1555 72.917 91.6573 71.4646C95.159 70.0122 98.152 67.5526 100.258 64.3969C102.363 61.2413 103.487 57.5312 103.487 53.7359C103.482 48.6483 101.461 43.7707 97.8681 40.1732C94.2755 36.5758 89.4044 34.5522 84.3236 34.5465ZM68.9926 53.7359C68.9969 50.334 70.1275 47.0296 72.2075 44.3399C74.2875 41.6502 77.1994 39.727 80.4875 38.8713V68.6007C77.1994 67.745 74.2875 65.8217 72.2075 63.132C70.1275 60.4422 68.9969 57.1378 68.9926 53.7359ZM84.3236 69.0874H84.3203V38.3844H84.3236C88.3897 38.3844 92.2892 40.0018 95.1643 42.8807C98.0394 45.7597 99.6546 49.6644 99.6546 53.7359C99.6546 57.8074 98.0394 61.7121 95.1643 64.591C92.2892 67.47 88.3897 69.0874 84.3236 69.0874Z" fill="url(#paint11_linear)"/>
<path d="M114.423 106.73L105.562 88.2952C105.5 88.05 105.389 87.8197 105.237 87.6178L102.075 81.0378C101.965 80.81 101.812 80.6061 101.623 80.4379C101.435 80.2696 101.215 80.1403 100.977 80.0574C100.738 79.9744 100.486 79.9394 100.234 79.9545C99.9818 79.9695 99.7353 80.0342 99.5084 80.145L97.7858 80.9845L96.2354 77.7991C101.659 75.1097 106.015 70.663 108.595 65.1815C111.176 59.7 111.83 53.5058 110.45 47.6052C109.071 41.7046 105.74 36.4444 100.998 32.6792C96.2557 28.9139 90.3814 26.865 84.3295 26.8652H84.3206V1.91894C84.3206 1.41 84.1187 0.921915 83.7593 0.562044C83.3999 0.202173 82.9125 0 82.4042 0H1.91638C1.40812 0 0.920684 0.202173 0.561294 0.562044C0.201903 0.921915 0 1.41 0 1.91894V103.821C-7.65658e-07 104.079 0.0518154 104.334 0.152359 104.571C0.252902 104.808 0.400114 105.023 0.585214 105.202L6.33435 110.76C6.69162 111.105 7.16886 111.298 7.66551 111.298C8.16215 111.298 8.6394 111.105 8.99667 110.76L13.4146 106.488L17.8326 110.76C18.1899 111.105 18.6671 111.298 19.1638 111.298C19.6604 111.298 20.1377 111.105 20.4949 110.76L24.9129 106.488L29.3309 110.76C29.6881 111.105 30.1654 111.298 30.662 111.298C31.1587 111.298 31.6359 111.105 31.9932 110.76L36.4112 106.488L40.8291 110.76C41.1864 111.105 41.6637 111.298 42.1603 111.298C42.6569 111.298 43.1342 111.105 43.4915 110.76L47.9094 106.488L52.3274 110.76C52.6847 111.105 53.1619 111.298 53.6586 111.298C54.1552 111.298 54.6325 111.105 54.9897 110.76L59.4077 106.488L63.8257 110.76C64.1829 111.105 64.6602 111.298 65.1568 111.298C65.6535 111.298 66.1307 111.105 66.488 110.76L70.906 106.488L75.3239 110.76C75.6812 111.105 76.1584 111.298 76.6551 111.298C77.1517 111.298 77.629 111.105 77.9863 110.76L83.7354 105.202C83.9205 105.023 84.0677 104.808 84.1682 104.571C84.2688 104.334 84.3206 104.079 84.3206 103.821V80.5955H84.3295C87.1666 80.5974 89.9861 80.1469 92.6817 79.2608L94.3397 82.6669L92.6168 83.5065C92.1616 83.7289 91.8128 84.1228 91.6467 84.602C91.4806 85.0812 91.5107 85.6067 91.7305 86.0637L104.083 111.765C104.751 113.137 105.936 114.188 107.378 114.686C108.819 115.183 110.399 115.087 111.77 114.418C113.139 113.75 114.187 112.565 114.685 111.124C115.182 109.682 115.088 108.102 114.423 106.73ZM80.4878 103.007L76.6551 106.712L72.2371 102.441C71.8798 102.095 71.4026 101.902 70.906 101.902C70.4093 101.902 69.9321 102.095 69.5748 102.441L65.1568 106.712L60.7389 102.441C60.3816 102.095 59.9043 101.902 59.4077 101.902C58.911 101.902 58.4338 102.095 58.0765 102.441L53.6586 106.712L49.2406 102.441C48.8833 102.095 48.4061 101.902 47.9094 101.902C47.4128 101.902 46.9355 102.095 46.5783 102.441L42.1603 106.712L37.7423 102.441C37.3851 102.095 36.9078 101.902 36.4112 101.902C35.9145 101.902 35.4373 102.095 35.08 102.441L30.662 106.712L26.2441 102.441C25.8868 102.095 25.4095 101.902 24.9129 101.902C24.4163 101.902 23.939 102.095 23.5817 102.441L19.1638 106.712L14.7458 102.441C14.3885 102.095 13.9113 101.902 13.4146 101.902C12.918 101.902 12.4407 102.095 12.0835 102.441L7.66551 106.712L3.83275 103.007V3.83788H80.4878V27.1417C79.1725 27.332 77.8732 27.6207 76.6009 28.0052C76.4762 27.0825 76.1298 26.2038 75.5914 25.4446C75.053 24.6853 74.3387 24.0682 73.5098 23.6461C72.6809 23.224 71.7621 23.0096 70.8322 23.0212C69.9024 23.0327 68.9892 23.27 68.171 23.7126C67.3529 24.1553 66.6542 24.79 66.1348 25.5624C65.6155 26.3348 65.291 27.2219 65.1892 28.1475C65.0874 29.073 65.2114 30.0095 65.5504 30.8766C65.8895 31.7437 66.4336 32.5154 67.136 33.1257C64.0688 35.6866 61.6121 38.9017 59.9456 42.5357C58.279 46.1697 57.4447 50.1308 57.5037 54.1292C57.5627 58.1276 58.5135 62.0623 60.2865 65.6454C62.0595 69.2286 64.61 72.3695 67.7514 74.8386H63.2404C62.7322 74.8386 62.2447 75.0408 61.8854 75.4007C61.526 75.7605 61.3241 76.2486 61.3241 76.7576C61.3241 77.2665 61.526 77.7546 61.8854 78.1145C62.2447 78.4743 62.7322 78.6765 63.2404 78.6765H70.906C71.2189 78.6767 71.5271 78.6 71.8036 78.4533C72.0802 78.3065 72.3165 78.094 72.492 77.8346C75.0097 79.0799 77.7084 79.9184 80.4878 80.3189V103.007ZM70.5782 30.6728C70.1879 30.6038 69.8287 30.4151 69.5502 30.1327C69.2717 29.8502 69.0877 29.4881 69.0238 29.0965C68.9598 28.7048 69.019 28.3029 69.1932 27.9463C69.3674 27.5898 69.6479 27.2963 69.9959 27.1065C70.344 26.9166 70.7424 26.8397 71.136 26.8865C71.5296 26.9333 71.8989 27.1015 72.1929 27.3677C72.4869 27.6339 72.6909 27.985 72.7769 28.3725C72.8628 28.7599 72.8264 29.1645 72.6726 29.5303L72.6824 29.5346C71.9627 29.8834 71.2613 30.2628 70.5782 30.6728ZM84.3295 76.7576C79.7812 76.7576 75.335 75.4071 71.5533 72.8768C67.7715 70.3465 64.824 66.7501 63.0834 62.5425C61.3429 58.3348 60.8875 53.7048 61.7748 49.2379C62.6621 44.7711 64.8523 40.668 68.0685 37.4476C71.2846 34.2271 75.3822 32.034 79.8431 31.1455C84.3039 30.257 88.9278 30.713 93.1298 32.4559C97.3319 34.1988 100.923 37.1502 103.45 40.937C105.977 44.7239 107.326 49.1759 107.326 53.7303C107.319 59.8354 104.894 65.6884 100.583 70.0054C96.2716 74.3223 90.4264 76.7507 84.3295 76.7576ZM96.0105 86.1215L97.7398 85.2777H97.7436L99.4559 84.442L101.118 87.9004L97.6727 89.5816L96.0105 86.1215ZM111.062 109.868C110.939 110.226 110.713 110.54 110.412 110.77C110.111 110.999 109.749 111.134 109.372 111.158C108.994 111.182 108.618 111.094 108.291 110.904C107.963 110.714 107.699 110.432 107.532 110.092L99.3347 93.0374L102.78 91.3561L110.973 108.402C111.084 108.629 111.149 108.875 111.164 109.127C111.18 109.378 111.145 109.63 111.062 109.868Z" fill="url(#paint12_linear)"/>
</g>
<defs>
<linearGradient id="paint0_linear" x1="57.5" y1="0" x2="57.5" y2="115" gradientUnits="userSpaceOnUse">
<stop stop-color="#42DC51"/>
<stop offset="1" stop-color="#043E09"/>
</linearGradient>
<linearGradient id="paint1_linear" x1="57.5" y1="0" x2="57.5" y2="115" gradientUnits="userSpaceOnUse">
<stop stop-color="#42DC51"/>
<stop offset="1" stop-color="#043E09"/>
</linearGradient>
<linearGradient id="paint2_linear" x1="57.5" y1="0" x2="57.5" y2="115" gradientUnits="userSpaceOnUse">
<stop stop-color="#42DC51"/>
<stop offset="1" stop-color="#043E09"/>
</linearGradient>
<linearGradient id="paint3_linear" x1="57.5" y1="0" x2="57.5" y2="115" gradientUnits="userSpaceOnUse">
<stop stop-color="#42DC51"/>
<stop offset="1" stop-color="#043E09"/>
</linearGradient>
<linearGradient id="paint4_linear" x1="57.5" y1="0" x2="57.5" y2="115" gradientUnits="userSpaceOnUse">
<stop stop-color="#42DC51"/>
<stop offset="1" stop-color="#043E09"/>
</linearGradient>
<linearGradient id="paint5_linear" x1="57.5" y1="0" x2="57.5" y2="115" gradientUnits="userSpaceOnUse">
<stop stop-color="#42DC51"/>
<stop offset="1" stop-color="#043E09"/>
</linearGradient>
<linearGradient id="paint6_linear" x1="57.5" y1="0" x2="57.5" y2="115" gradientUnits="userSpaceOnUse">
<stop stop-color="#42DC51"/>
<stop offset="1" stop-color="#043E09"/>
</linearGradient>
<linearGradient id="paint7_linear" x1="57.5" y1="0" x2="57.5" y2="115" gradientUnits="userSpaceOnUse">
<stop stop-color="#42DC51"/>
<stop offset="1" stop-color="#043E09"/>
</linearGradient>
<linearGradient id="paint8_linear" x1="57.5" y1="0" x2="57.5" y2="115" gradientUnits="userSpaceOnUse">
<stop stop-color="#42DC51"/>
<stop offset="1" stop-color="#043E09"/>
</linearGradient>
<linearGradient id="paint9_linear" x1="57.5" y1="0" x2="57.5" y2="115" gradientUnits="userSpaceOnUse">
<stop stop-color="#42DC51"/>
<stop offset="1" stop-color="#043E09"/>
</linearGradient>
<linearGradient id="paint10_linear" x1="57.5" y1="0" x2="57.5" y2="115" gradientUnits="userSpaceOnUse">
<stop stop-color="#42DC51"/>
<stop offset="1" stop-color="#043E09"/>
</linearGradient>
<linearGradient id="paint11_linear" x1="57.5" y1="0" x2="57.5" y2="115" gradientUnits="userSpaceOnUse">
<stop stop-color="#42DC51"/>
<stop offset="1" stop-color="#043E09"/>
</linearGradient>
<linearGradient id="paint12_linear" x1="57.5" y1="0" x2="57.5" y2="115" gradientUnits="userSpaceOnUse">
<stop stop-color="#42DC51"/>
<stop offset="1" stop-color="#043E09"/>
</linearGradient>
</defs>
</svg>
