<svg width="115" height="115" viewBox="0 0 115 115" fill="none" xmlns="http://www.w3.org/2000/svg">
<path opacity="0.16" d="M109.609 79.8116V15.835C109.609 12.0575 106.536 8.98438 102.759 8.98438H86.4746V6.73828C86.4746 3.02279 83.4518 0 79.7363 0C76.0208 0 72.998 3.02279 72.998 6.73828V8.98438H36.6113V6.73828C36.6113 3.02279 33.5885 0 29.873 0C26.1576 0 23.1348 3.02279 23.1348 6.73828V8.98438H6.85059C3.07333 8.98438 0 12.0575 0 15.835V99.165C0 102.943 3.07333 106.016 6.85059 106.016H37.4651C38.7054 106.016 39.7112 105.01 39.7112 103.77C39.7112 102.529 38.7054 101.523 37.4651 101.523H6.85059C5.5501 101.523 4.49219 100.466 4.49219 99.165V15.835C4.49219 14.5345 5.5501 13.4766 6.85059 13.4766H23.1348V15.7227C23.1348 19.4381 26.1576 22.4609 29.873 22.4609C33.5885 22.4609 36.6113 19.4381 36.6113 15.7227V13.4766H72.998V15.7227C72.998 19.4381 76.0208 22.4609 79.7363 22.4609C83.4518 22.4609 86.4746 19.4381 86.4746 15.7227V13.4766H102.759C104.059 13.4766 105.117 14.5345 105.117 15.835V26.9531H20.2148C18.9746 26.9531 17.9688 27.9587 17.9688 29.1992C17.9688 30.4397 18.9746 31.4453 20.2148 31.4453H105.117V76.0161C103.205 74.81 101.087 73.9025 98.8281 73.3588V39.9805C98.8281 38.74 97.8223 37.7344 96.582 37.7344H13.0273C11.7871 37.7344 10.7812 38.74 10.7812 39.9805V92.9883C10.7812 94.2288 11.7871 95.2344 13.0273 95.2344H72.8177C72.9572 97.4389 73.4358 99.5525 74.2033 101.523H55.4336C54.1933 101.523 53.1875 102.529 53.1875 103.77C53.1875 105.01 54.1933 106.016 55.4336 106.016H76.6149C80.4394 111.445 86.7554 115 93.8867 115C105.529 115 115 105.529 115 93.8867C115 88.484 112.959 83.5497 109.609 79.8116ZM32.1191 15.7227C32.1191 16.9612 31.1115 17.9688 29.873 17.9688C28.6346 17.9688 27.627 16.9612 27.627 15.7227V6.73828C27.627 5.49978 28.6346 4.49219 29.873 4.49219C31.1115 4.49219 32.1191 5.49978 32.1191 6.73828V15.7227ZM81.9824 15.7227C81.9824 16.9612 80.9748 17.9688 79.7363 17.9688C78.4978 17.9688 77.4902 16.9612 77.4902 15.7227V6.73828C77.4902 5.49978 78.4978 4.49219 79.7363 4.49219C80.9748 4.49219 81.9824 5.49978 81.9824 6.73828V15.7227ZM93.8867 72.7734C92.8425 72.7734 91.816 72.8509 90.8118 72.998H82.1172V59.9707H94.3359V72.7791C94.1866 72.7759 94.037 72.7734 93.8867 72.7734ZM73.0077 90.7422H65.4062V77.4902H77.625V80.4358C75.23 83.3263 73.5894 86.8634 73.0077 90.7422ZM15.2734 59.9707H27.4922V72.998H15.2734V59.9707ZM31.9844 59.9707H44.2031V72.998H31.9844V59.9707ZM65.4062 59.9707H77.625V72.998H65.4062V59.9707ZM60.9141 72.998H48.6953V59.9707H60.9141V72.998ZM65.4062 55.4785V42.2266H77.625V55.4785H65.4062ZM60.9141 55.4785H48.6953V42.2266H60.9141V55.4785ZM44.2031 55.4785H31.9844V42.2266H44.2031V55.4785ZM44.2031 77.4902V90.7422H31.9844V77.4902H44.2031ZM48.6953 77.4902H60.9141V90.7422H48.6953V77.4902ZM94.3359 55.4785H82.1172V42.2266H94.3359V55.4785ZM27.4922 42.2266V55.4785H15.2734V42.2266H27.4922ZM15.2734 77.4902H27.4922V90.7422H15.2734V77.4902ZM93.8867 110.508C84.7218 110.508 77.2656 103.052 77.2656 93.8867C77.2656 84.7218 84.7218 77.2656 93.8867 77.2656C103.052 77.2656 110.508 84.7218 110.508 93.8867C110.508 103.052 103.052 110.508 93.8867 110.508Z" fill="url(#paint0_linear)"/>
<defs>
<linearGradient id="paint0_linear" x1="57.5" y1="0" x2="57.5" y2="115" gradientUnits="userSpaceOnUse">
<stop stop-color="#42DC51"/>
<stop offset="1" stop-color="#043E09"/>
</linearGradient>
</defs>
</svg>
