<svg width="388" height="309" viewBox="0 0 388 309" fill="none" xmlns="http://www.w3.org/2000/svg">
<path d="M383.026 9.94635C380.278 9.94635 378.051 7.71979 378.051 4.97318C378.051 2.22657 380.278 0 383.026 0C385.773 0 388 2.22657 388 4.97318C388 7.71979 385.773 9.94635 383.026 9.94635Z" fill="#28A034" fill-opacity="0.06"/>
<path d="M363.128 9.94635C360.381 9.94635 358.154 7.71979 358.154 4.97318C358.154 2.22657 360.381 0 363.128 0C365.875 0 368.103 2.22657 368.103 4.97318C368.103 7.71979 365.875 9.94635 363.128 9.94635Z" fill="#28A034" fill-opacity="0.06"/>
<path d="M343.231 9.94635C340.484 9.94635 338.256 7.71979 338.256 4.97318C338.256 2.22657 340.484 0 343.231 0C345.978 0 348.205 2.22657 348.205 4.97318C348.205 7.71979 345.978 9.94635 343.231 9.94635Z" fill="#28A034" fill-opacity="0.06"/>
<path d="M323.333 9.94635C320.586 9.94635 318.359 7.71979 318.359 4.97318C318.359 2.22657 320.586 0 323.333 0C326.081 0 328.308 2.22657 328.308 4.97318C328.308 7.71979 326.081 9.94635 323.333 9.94635Z" fill="#28A034" fill-opacity="0.06"/>
<path d="M303.436 9.94635C300.689 9.94635 298.462 7.71979 298.462 4.97318C298.462 2.22657 300.689 0 303.436 0C306.183 0 308.41 2.22657 308.41 4.97318C308.41 7.71979 306.183 9.94635 303.436 9.94635Z" fill="#28A034" fill-opacity="0.06"/>
<path d="M383.026 29.8391C380.278 29.8391 378.051 27.6125 378.051 24.8659C378.051 22.1193 380.278 19.8927 383.026 19.8927C385.773 19.8927 388 22.1193 388 24.8659C388 27.6125 385.773 29.8391 383.026 29.8391Z" fill="#28A034" fill-opacity="0.06"/>
<path d="M363.128 29.8391C360.381 29.8391 358.154 27.6125 358.154 24.8659C358.154 22.1193 360.381 19.8927 363.128 19.8927C365.875 19.8927 368.103 22.1193 368.103 24.8659C368.103 27.6125 365.875 29.8391 363.128 29.8391Z" fill="#28A034" fill-opacity="0.06"/>
<path d="M343.231 29.8391C340.484 29.8391 338.256 27.6125 338.256 24.8659C338.256 22.1193 340.484 19.8927 343.231 19.8927C345.978 19.8927 348.205 22.1193 348.205 24.8659C348.205 27.6125 345.978 29.8391 343.231 29.8391Z" fill="#28A034" fill-opacity="0.06"/>
<path d="M323.333 29.8391C320.586 29.8391 318.359 27.6125 318.359 24.8659C318.359 22.1193 320.586 19.8927 323.333 19.8927C326.081 19.8927 328.308 22.1193 328.308 24.8659C328.308 27.6125 326.081 29.8391 323.333 29.8391Z" fill="#28A034" fill-opacity="0.06"/>
<path d="M303.436 29.8391C300.689 29.8391 298.462 27.6125 298.462 24.8659C298.462 22.1193 300.689 19.8927 303.436 19.8927C306.183 19.8927 308.41 22.1193 308.41 24.8659C308.41 27.6125 306.183 29.8391 303.436 29.8391Z" fill="#28A034" fill-opacity="0.06"/>
<path d="M383.026 49.7318C380.278 49.7318 378.051 47.5052 378.051 44.7586C378.051 42.012 380.278 39.7854 383.026 39.7854C385.773 39.7854 388 42.012 388 44.7586C388 47.5052 385.773 49.7318 383.026 49.7318Z" fill="#28A034" fill-opacity="0.06"/>
<path d="M363.128 49.7318C360.381 49.7318 358.154 47.5052 358.154 44.7586C358.154 42.012 360.381 39.7854 363.128 39.7854C365.875 39.7854 368.103 42.012 368.103 44.7586C368.103 47.5052 365.875 49.7318 363.128 49.7318Z" fill="#28A034" fill-opacity="0.06"/>
<path d="M343.231 49.7318C340.484 49.7318 338.256 47.5052 338.256 44.7586C338.256 42.012 340.484 39.7854 343.231 39.7854C345.978 39.7854 348.205 42.012 348.205 44.7586C348.205 47.5052 345.978 49.7318 343.231 49.7318Z" fill="#28A034" fill-opacity="0.06"/>
<path d="M323.333 49.7318C320.586 49.7318 318.359 47.5052 318.359 44.7586C318.359 42.012 320.586 39.7854 323.333 39.7854C326.081 39.7854 328.308 42.012 328.308 44.7586C328.308 47.5052 326.081 49.7318 323.333 49.7318Z" fill="#28A034" fill-opacity="0.06"/>
<path d="M303.436 49.7318C300.689 49.7318 298.462 47.5052 298.462 44.7586C298.462 42.012 300.689 39.7854 303.436 39.7854C306.183 39.7854 308.41 42.012 308.41 44.7586C308.41 47.5052 306.183 49.7318 303.436 49.7318Z" fill="#28A034" fill-opacity="0.06"/>
<path d="M383.026 69.6245C380.278 69.6245 378.051 67.3979 378.051 64.6513C378.051 61.9047 380.278 59.6781 383.026 59.6781C385.773 59.6781 388 61.9047 388 64.6513C388 67.3979 385.773 69.6245 383.026 69.6245Z" fill="#28A034" fill-opacity="0.06"/>
<path d="M363.128 69.6245C360.381 69.6245 358.154 67.3979 358.154 64.6513C358.154 61.9047 360.381 59.6781 363.128 59.6781C365.875 59.6781 368.103 61.9047 368.103 64.6513C368.103 67.3979 365.875 69.6245 363.128 69.6245Z" fill="#28A034" fill-opacity="0.06"/>
<path d="M343.231 69.6245C340.484 69.6245 338.256 67.3979 338.256 64.6513C338.256 61.9047 340.484 59.6781 343.231 59.6781C345.978 59.6781 348.205 61.9047 348.205 64.6513C348.205 67.3979 345.978 69.6245 343.231 69.6245Z" fill="#28A034" fill-opacity="0.06"/>
<path d="M323.333 69.6245C320.586 69.6245 318.359 67.3979 318.359 64.6513C318.359 61.9047 320.586 59.6781 323.333 59.6781C326.081 59.6781 328.308 61.9047 328.308 64.6513C328.308 67.3979 326.081 69.6245 323.333 69.6245Z" fill="#28A034" fill-opacity="0.06"/>
<path d="M303.436 69.6245C300.689 69.6245 298.462 67.3979 298.462 64.6513C298.462 61.9047 300.689 59.6781 303.436 59.6781C306.183 59.6781 308.41 61.9047 308.41 64.6513C308.41 67.3979 306.183 69.6245 303.436 69.6245Z" fill="#28A034" fill-opacity="0.06"/>
<path d="M383.026 89.5172C380.278 89.5172 378.051 87.2906 378.051 84.544C378.051 81.7974 380.278 79.5708 383.026 79.5708C385.773 79.5708 388 81.7974 388 84.544C388 87.2906 385.773 89.5172 383.026 89.5172Z" fill="#28A034" fill-opacity="0.06"/>
<path d="M363.128 89.5172C360.381 89.5172 358.154 87.2906 358.154 84.544C358.154 81.7974 360.381 79.5708 363.128 79.5708C365.875 79.5708 368.103 81.7974 368.103 84.544C368.103 87.2906 365.875 89.5172 363.128 89.5172Z" fill="#28A034" fill-opacity="0.06"/>
<path d="M343.231 89.5172C340.484 89.5172 338.256 87.2906 338.256 84.544C338.256 81.7974 340.484 79.5708 343.231 79.5708C345.978 79.5708 348.205 81.7974 348.205 84.544C348.205 87.2906 345.978 89.5172 343.231 89.5172Z" fill="#28A034" fill-opacity="0.06"/>
<path d="M323.333 89.5172C320.586 89.5172 318.359 87.2906 318.359 84.544C318.359 81.7974 320.586 79.5708 323.333 79.5708C326.081 79.5708 328.308 81.7974 328.308 84.544C328.308 87.2906 326.081 89.5172 323.333 89.5172Z" fill="#28A034" fill-opacity="0.06"/>
<path d="M303.436 89.5172C300.689 89.5172 298.462 87.2906 298.462 84.544C298.462 81.7974 300.689 79.5708 303.436 79.5708C306.183 79.5708 308.41 81.7974 308.41 84.544C308.41 87.2906 306.183 89.5172 303.436 89.5172Z" fill="#28A034" fill-opacity="0.06"/>
<path d="M383.026 109.41C380.278 109.41 378.051 107.183 378.051 104.437C378.051 101.69 380.278 99.4635 383.026 99.4635C385.773 99.4635 388 101.69 388 104.437C388 107.183 385.773 109.41 383.026 109.41Z" fill="#28A034" fill-opacity="0.06"/>
<path d="M363.128 109.41C360.381 109.41 358.154 107.183 358.154 104.437C358.154 101.69 360.381 99.4635 363.128 99.4635C365.875 99.4635 368.103 101.69 368.103 104.437C368.103 107.183 365.875 109.41 363.128 109.41Z" fill="#28A034" fill-opacity="0.06"/>
<path d="M343.231 109.41C340.484 109.41 338.256 107.183 338.256 104.437C338.256 101.69 340.484 99.4635 343.231 99.4635C345.978 99.4635 348.205 101.69 348.205 104.437C348.205 107.183 345.978 109.41 343.231 109.41Z" fill="#28A034" fill-opacity="0.06"/>
<path d="M323.333 109.41C320.586 109.41 318.359 107.183 318.359 104.437C318.359 101.69 320.586 99.4635 323.333 99.4635C326.081 99.4635 328.308 101.69 328.308 104.437C328.308 107.183 326.081 109.41 323.333 109.41Z" fill="#28A034" fill-opacity="0.06"/>
<path d="M303.436 109.41C300.689 109.41 298.462 107.183 298.462 104.437C298.462 101.69 300.689 99.4635 303.436 99.4635C306.183 99.4635 308.41 101.69 308.41 104.437C308.41 107.183 306.183 109.41 303.436 109.41Z" fill="#28A034" fill-opacity="0.06"/>
<path d="M383.026 129.303C380.278 129.303 378.051 127.076 378.051 124.329C378.051 121.583 380.278 119.356 383.026 119.356C385.773 119.356 388 121.583 388 124.329C388 127.076 385.773 129.303 383.026 129.303Z" fill="#28A034" fill-opacity="0.06"/>
<path d="M363.128 129.303C360.381 129.303 358.154 127.076 358.154 124.329C358.154 121.583 360.381 119.356 363.128 119.356C365.875 119.356 368.103 121.583 368.103 124.329C368.103 127.076 365.875 129.303 363.128 129.303Z" fill="#28A034" fill-opacity="0.06"/>
<path d="M343.231 129.303C340.484 129.303 338.256 127.076 338.256 124.329C338.256 121.583 340.484 119.356 343.231 119.356C345.978 119.356 348.205 121.583 348.205 124.329C348.205 127.076 345.978 129.303 343.231 129.303Z" fill="#28A034" fill-opacity="0.06"/>
<path d="M323.333 129.303C320.586 129.303 318.359 127.076 318.359 124.329C318.359 121.583 320.586 119.356 323.333 119.356C326.081 119.356 328.308 121.583 328.308 124.329C328.308 127.076 326.081 129.303 323.333 129.303Z" fill="#28A034" fill-opacity="0.06"/>
<path d="M303.436 129.303C300.689 129.303 298.462 127.076 298.462 124.329C298.462 121.583 300.689 119.356 303.436 119.356C306.183 119.356 308.41 121.583 308.41 124.329C308.41 127.076 306.183 129.303 303.436 129.303Z" fill="#28A034" fill-opacity="0.06"/>
<path d="M383.026 149.195C380.278 149.195 378.051 146.969 378.051 144.222C378.051 141.475 380.278 139.249 383.026 139.249C385.773 139.249 388 141.475 388 144.222C388 146.969 385.773 149.195 383.026 149.195Z" fill="#28A034" fill-opacity="0.06"/>
<path d="M363.128 149.195C360.381 149.195 358.154 146.969 358.154 144.222C358.154 141.475 360.381 139.249 363.128 139.249C365.875 139.249 368.103 141.475 368.103 144.222C368.103 146.969 365.875 149.195 363.128 149.195Z" fill="#28A034" fill-opacity="0.06"/>
<path d="M343.231 149.195C340.484 149.195 338.256 146.969 338.256 144.222C338.256 141.475 340.484 139.249 343.231 139.249C345.978 139.249 348.205 141.475 348.205 144.222C348.205 146.969 345.978 149.195 343.231 149.195Z" fill="#28A034" fill-opacity="0.06"/>
<path d="M323.333 149.195C320.586 149.195 318.359 146.969 318.359 144.222C318.359 141.475 320.586 139.249 323.333 139.249C326.081 139.249 328.308 141.475 328.308 144.222C328.308 146.969 326.081 149.195 323.333 149.195Z" fill="#28A034" fill-opacity="0.06"/>
<path d="M303.436 149.195C300.689 149.195 298.462 146.969 298.462 144.222C298.462 141.475 300.689 139.249 303.436 139.249C306.183 139.249 308.41 141.475 308.41 144.222C308.41 146.969 306.183 149.195 303.436 149.195Z" fill="#28A034" fill-opacity="0.06"/>
<path d="M184.051 9.94635C181.304 9.94635 179.077 7.71979 179.077 4.97318C179.077 2.22657 181.304 0 184.051 0C186.799 0 189.026 2.22657 189.026 4.97318C189.026 7.71979 186.799 9.94635 184.051 9.94635Z" fill="#28A034" fill-opacity="0.06"/>
<path d="M164.154 9.94635C161.407 9.94635 159.179 7.71979 159.179 4.97318C159.179 2.22657 161.407 0 164.154 0C166.901 0 169.128 2.22657 169.128 4.97318C169.128 7.71979 166.901 9.94635 164.154 9.94635Z" fill="#28A034" fill-opacity="0.06"/>
<path d="M144.256 9.94635C141.509 9.94635 139.282 7.71979 139.282 4.97318C139.282 2.22657 141.509 0 144.256 0C147.004 0 149.231 2.22657 149.231 4.97318C149.231 7.71979 147.004 9.94635 144.256 9.94635Z" fill="#28A034" fill-opacity="0.06"/>
<path d="M124.359 9.94635C121.612 9.94635 119.385 7.71979 119.385 4.97318C119.385 2.22657 121.612 0 124.359 0C127.106 0 129.333 2.22657 129.333 4.97318C129.333 7.71979 127.106 9.94635 124.359 9.94635Z" fill="#28A034" fill-opacity="0.06"/>
<path d="M104.462 9.94635C101.714 9.94635 99.4872 7.71979 99.4872 4.97318C99.4872 2.22657 101.714 0 104.462 0C107.209 0 109.436 2.22657 109.436 4.97318C109.436 7.71979 107.209 9.94635 104.462 9.94635Z" fill="#28A034" fill-opacity="0.06"/>
<path d="M184.051 29.8391C181.304 29.8391 179.077 27.6125 179.077 24.8659C179.077 22.1193 181.304 19.8927 184.051 19.8927C186.799 19.8927 189.026 22.1193 189.026 24.8659C189.026 27.6125 186.799 29.8391 184.051 29.8391Z" fill="#28A034" fill-opacity="0.06"/>
<path d="M164.154 29.8391C161.407 29.8391 159.179 27.6125 159.179 24.8659C159.179 22.1193 161.407 19.8927 164.154 19.8927C166.901 19.8927 169.128 22.1193 169.128 24.8659C169.128 27.6125 166.901 29.8391 164.154 29.8391Z" fill="#28A034" fill-opacity="0.06"/>
<path d="M144.256 29.8391C141.509 29.8391 139.282 27.6125 139.282 24.8659C139.282 22.1193 141.509 19.8927 144.256 19.8927C147.004 19.8927 149.231 22.1193 149.231 24.8659C149.231 27.6125 147.004 29.8391 144.256 29.8391Z" fill="#28A034" fill-opacity="0.06"/>
<path d="M124.359 29.8391C121.612 29.8391 119.385 27.6125 119.385 24.8659C119.385 22.1193 121.612 19.8927 124.359 19.8927C127.106 19.8927 129.333 22.1193 129.333 24.8659C129.333 27.6125 127.106 29.8391 124.359 29.8391Z" fill="#28A034" fill-opacity="0.06"/>
<path d="M104.462 29.8391C101.714 29.8391 99.4872 27.6125 99.4872 24.8659C99.4872 22.1193 101.714 19.8927 104.462 19.8927C107.209 19.8927 109.436 22.1193 109.436 24.8659C109.436 27.6125 107.209 29.8391 104.462 29.8391Z" fill="#28A034" fill-opacity="0.06"/>
<path d="M184.051 49.7318C181.304 49.7318 179.077 47.5052 179.077 44.7586C179.077 42.012 181.304 39.7854 184.051 39.7854C186.799 39.7854 189.026 42.012 189.026 44.7586C189.026 47.5052 186.799 49.7318 184.051 49.7318Z" fill="#28A034" fill-opacity="0.06"/>
<path d="M164.154 49.7318C161.407 49.7318 159.179 47.5052 159.179 44.7586C159.179 42.012 161.407 39.7854 164.154 39.7854C166.901 39.7854 169.128 42.012 169.128 44.7586C169.128 47.5052 166.901 49.7318 164.154 49.7318Z" fill="#28A034" fill-opacity="0.06"/>
<path d="M144.256 49.7318C141.509 49.7318 139.282 47.5052 139.282 44.7586C139.282 42.012 141.509 39.7854 144.256 39.7854C147.004 39.7854 149.231 42.012 149.231 44.7586C149.231 47.5052 147.004 49.7318 144.256 49.7318Z" fill="#28A034" fill-opacity="0.06"/>
<path d="M124.359 49.7318C121.612 49.7318 119.385 47.5052 119.385 44.7586C119.385 42.012 121.612 39.7854 124.359 39.7854C127.106 39.7854 129.333 42.012 129.333 44.7586C129.333 47.5052 127.106 49.7318 124.359 49.7318Z" fill="#28A034" fill-opacity="0.06"/>
<path d="M104.462 49.7318C101.714 49.7318 99.4872 47.5052 99.4872 44.7586C99.4872 42.012 101.714 39.7854 104.462 39.7854C107.209 39.7854 109.436 42.012 109.436 44.7586C109.436 47.5052 107.209 49.7318 104.462 49.7318Z" fill="#28A034" fill-opacity="0.06"/>
<path d="M184.051 69.6245C181.304 69.6245 179.077 67.3979 179.077 64.6513C179.077 61.9047 181.304 59.6781 184.051 59.6781C186.799 59.6781 189.026 61.9047 189.026 64.6513C189.026 67.3979 186.799 69.6245 184.051 69.6245Z" fill="#28A034" fill-opacity="0.06"/>
<path d="M164.154 69.6245C161.407 69.6245 159.179 67.3979 159.179 64.6513C159.179 61.9047 161.407 59.6781 164.154 59.6781C166.901 59.6781 169.128 61.9047 169.128 64.6513C169.128 67.3979 166.901 69.6245 164.154 69.6245Z" fill="#28A034" fill-opacity="0.06"/>
<path d="M144.256 69.6245C141.509 69.6245 139.282 67.3979 139.282 64.6513C139.282 61.9047 141.509 59.6781 144.256 59.6781C147.004 59.6781 149.231 61.9047 149.231 64.6513C149.231 67.3979 147.004 69.6245 144.256 69.6245Z" fill="#28A034" fill-opacity="0.06"/>
<path d="M124.359 69.6245C121.612 69.6245 119.385 67.3979 119.385 64.6513C119.385 61.9047 121.612 59.6781 124.359 59.6781C127.106 59.6781 129.333 61.9047 129.333 64.6513C129.333 67.3979 127.106 69.6245 124.359 69.6245Z" fill="#28A034" fill-opacity="0.06"/>
<path d="M104.462 69.6245C101.714 69.6245 99.4872 67.3979 99.4872 64.6513C99.4872 61.9047 101.714 59.6781 104.462 59.6781C107.209 59.6781 109.436 61.9047 109.436 64.6513C109.436 67.3979 107.209 69.6245 104.462 69.6245Z" fill="#28A034" fill-opacity="0.06"/>
<path d="M184.051 89.5172C181.304 89.5172 179.077 87.2906 179.077 84.544C179.077 81.7974 181.304 79.5708 184.051 79.5708C186.799 79.5708 189.026 81.7974 189.026 84.544C189.026 87.2906 186.799 89.5172 184.051 89.5172Z" fill="#28A034" fill-opacity="0.06"/>
<path d="M164.154 89.5172C161.407 89.5172 159.179 87.2906 159.179 84.544C159.179 81.7974 161.407 79.5708 164.154 79.5708C166.901 79.5708 169.128 81.7974 169.128 84.544C169.128 87.2906 166.901 89.5172 164.154 89.5172Z" fill="#28A034" fill-opacity="0.06"/>
<path d="M144.256 89.5172C141.509 89.5172 139.282 87.2906 139.282 84.544C139.282 81.7974 141.509 79.5708 144.256 79.5708C147.004 79.5708 149.231 81.7974 149.231 84.544C149.231 87.2906 147.004 89.5172 144.256 89.5172Z" fill="#28A034" fill-opacity="0.06"/>
<path d="M124.359 89.5172C121.612 89.5172 119.385 87.2906 119.385 84.544C119.385 81.7974 121.612 79.5708 124.359 79.5708C127.106 79.5708 129.333 81.7974 129.333 84.544C129.333 87.2906 127.106 89.5172 124.359 89.5172Z" fill="#28A034" fill-opacity="0.06"/>
<path d="M104.462 89.5172C101.714 89.5172 99.4872 87.2906 99.4872 84.544C99.4872 81.7974 101.714 79.5708 104.462 79.5708C107.209 79.5708 109.436 81.7974 109.436 84.544C109.436 87.2906 107.209 89.5172 104.462 89.5172Z" fill="#28A034" fill-opacity="0.06"/>
<path d="M184.051 109.41C181.304 109.41 179.077 107.183 179.077 104.437C179.077 101.69 181.304 99.4635 184.051 99.4635C186.799 99.4635 189.026 101.69 189.026 104.437C189.026 107.183 186.799 109.41 184.051 109.41Z" fill="#28A034" fill-opacity="0.06"/>
<path d="M164.154 109.41C161.407 109.41 159.179 107.183 159.179 104.437C159.179 101.69 161.407 99.4635 164.154 99.4635C166.901 99.4635 169.128 101.69 169.128 104.437C169.128 107.183 166.901 109.41 164.154 109.41Z" fill="#28A034" fill-opacity="0.06"/>
<path d="M144.256 109.41C141.509 109.41 139.282 107.183 139.282 104.437C139.282 101.69 141.509 99.4635 144.256 99.4635C147.004 99.4635 149.231 101.69 149.231 104.437C149.231 107.183 147.004 109.41 144.256 109.41Z" fill="#28A034" fill-opacity="0.06"/>
<path d="M124.359 109.41C121.612 109.41 119.385 107.183 119.385 104.437C119.385 101.69 121.612 99.4635 124.359 99.4635C127.106 99.4635 129.333 101.69 129.333 104.437C129.333 107.183 127.106 109.41 124.359 109.41Z" fill="#28A034" fill-opacity="0.06"/>
<path d="M104.462 109.41C101.714 109.41 99.4872 107.183 99.4872 104.437C99.4872 101.69 101.714 99.4635 104.462 99.4635C107.209 99.4635 109.436 101.69 109.436 104.437C109.436 107.183 107.209 109.41 104.462 109.41Z" fill="#28A034" fill-opacity="0.06"/>
<path d="M184.051 129.303C181.304 129.303 179.077 127.076 179.077 124.329C179.077 121.583 181.304 119.356 184.051 119.356C186.799 119.356 189.026 121.583 189.026 124.329C189.026 127.076 186.799 129.303 184.051 129.303Z" fill="#28A034" fill-opacity="0.06"/>
<path d="M164.154 129.303C161.407 129.303 159.179 127.076 159.179 124.329C159.179 121.583 161.407 119.356 164.154 119.356C166.901 119.356 169.128 121.583 169.128 124.329C169.128 127.076 166.901 129.303 164.154 129.303Z" fill="#28A034" fill-opacity="0.06"/>
<path d="M144.256 129.303C141.509 129.303 139.282 127.076 139.282 124.329C139.282 121.583 141.509 119.356 144.256 119.356C147.004 119.356 149.231 121.583 149.231 124.329C149.231 127.076 147.004 129.303 144.256 129.303Z" fill="#28A034" fill-opacity="0.06"/>
<path d="M124.359 129.303C121.612 129.303 119.385 127.076 119.385 124.329C119.385 121.583 121.612 119.356 124.359 119.356C127.106 119.356 129.333 121.583 129.333 124.329C129.333 127.076 127.106 129.303 124.359 129.303Z" fill="#28A034" fill-opacity="0.06"/>
<path d="M104.462 129.303C101.714 129.303 99.4872 127.076 99.4872 124.329C99.4872 121.583 101.714 119.356 104.462 119.356C107.209 119.356 109.436 121.583 109.436 124.329C109.436 127.076 107.209 129.303 104.462 129.303Z" fill="#28A034" fill-opacity="0.06"/>
<path d="M184.051 149.195C181.304 149.195 179.077 146.969 179.077 144.222C179.077 141.475 181.304 139.249 184.051 139.249C186.799 139.249 189.026 141.475 189.026 144.222C189.026 146.969 186.799 149.195 184.051 149.195Z" fill="#28A034" fill-opacity="0.06"/>
<path d="M164.154 149.195C161.407 149.195 159.179 146.969 159.179 144.222C159.179 141.475 161.407 139.249 164.154 139.249C166.901 139.249 169.128 141.475 169.128 144.222C169.128 146.969 166.901 149.195 164.154 149.195Z" fill="#28A034" fill-opacity="0.06"/>
<path d="M144.256 149.195C141.509 149.195 139.282 146.969 139.282 144.222C139.282 141.475 141.509 139.249 144.256 139.249C147.004 139.249 149.231 141.475 149.231 144.222C149.231 146.969 147.004 149.195 144.256 149.195Z" fill="#28A034" fill-opacity="0.06"/>
<path d="M124.359 149.195C121.612 149.195 119.385 146.969 119.385 144.222C119.385 141.475 121.612 139.249 124.359 139.249C127.106 139.249 129.333 141.475 129.333 144.222C129.333 146.969 127.106 149.195 124.359 149.195Z" fill="#28A034" fill-opacity="0.06"/>
<path d="M104.462 149.195C101.714 149.195 99.4872 146.969 99.4872 144.222C99.4872 141.475 101.714 139.249 104.462 139.249C107.209 139.249 109.436 141.475 109.436 144.222C109.436 146.969 107.209 149.195 104.462 149.195Z" fill="#28A034" fill-opacity="0.06"/>
<path d="M383.026 169.751C380.278 169.751 378.051 167.525 378.051 164.778C378.051 162.031 380.278 159.805 383.026 159.805C385.773 159.805 388 162.031 388 164.778C388 167.525 385.773 169.751 383.026 169.751Z" fill="#28A034" fill-opacity="0.06"/>
<path d="M363.128 169.751C360.381 169.751 358.154 167.525 358.154 164.778C358.154 162.031 360.381 159.805 363.128 159.805C365.875 159.805 368.103 162.031 368.103 164.778C368.103 167.525 365.875 169.751 363.128 169.751Z" fill="#28A034" fill-opacity="0.06"/>
<path d="M343.231 169.751C340.484 169.751 338.256 167.525 338.256 164.778C338.256 162.031 340.484 159.805 343.231 159.805C345.978 159.805 348.205 162.031 348.205 164.778C348.205 167.525 345.978 169.751 343.231 169.751Z" fill="#28A034" fill-opacity="0.06"/>
<path d="M323.333 169.751C320.586 169.751 318.359 167.525 318.359 164.778C318.359 162.031 320.586 159.805 323.333 159.805C326.081 159.805 328.308 162.031 328.308 164.778C328.308 167.525 326.081 169.751 323.333 169.751Z" fill="#28A034" fill-opacity="0.06"/>
<path d="M303.436 169.751C300.689 169.751 298.462 167.525 298.462 164.778C298.462 162.031 300.689 159.805 303.436 159.805C306.183 159.805 308.41 162.031 308.41 164.778C308.41 167.525 306.183 169.751 303.436 169.751Z" fill="#28A034" fill-opacity="0.06"/>
<path d="M383.026 189.644C380.278 189.644 378.051 187.417 378.051 184.671C378.051 181.924 380.278 179.697 383.026 179.697C385.773 179.697 388 181.924 388 184.671C388 187.417 385.773 189.644 383.026 189.644Z" fill="#28A034" fill-opacity="0.06"/>
<path d="M363.128 189.644C360.381 189.644 358.154 187.417 358.154 184.671C358.154 181.924 360.381 179.697 363.128 179.697C365.875 179.697 368.103 181.924 368.103 184.671C368.103 187.417 365.875 189.644 363.128 189.644Z" fill="#28A034" fill-opacity="0.06"/>
<path d="M343.231 189.644C340.484 189.644 338.256 187.417 338.256 184.671C338.256 181.924 340.484 179.697 343.231 179.697C345.978 179.697 348.205 181.924 348.205 184.671C348.205 187.417 345.978 189.644 343.231 189.644Z" fill="#28A034" fill-opacity="0.06"/>
<path d="M323.333 189.644C320.586 189.644 318.359 187.417 318.359 184.671C318.359 181.924 320.586 179.697 323.333 179.697C326.081 179.697 328.308 181.924 328.308 184.671C328.308 187.417 326.081 189.644 323.333 189.644Z" fill="#28A034" fill-opacity="0.06"/>
<path d="M303.436 189.644C300.689 189.644 298.462 187.417 298.462 184.671C298.462 181.924 300.689 179.697 303.436 179.697C306.183 179.697 308.41 181.924 308.41 184.671C308.41 187.417 306.183 189.644 303.436 189.644Z" fill="#28A034" fill-opacity="0.06"/>
<path d="M383.026 209.536C380.278 209.536 378.051 207.31 378.051 204.563C378.051 201.817 380.278 199.59 383.026 199.59C385.773 199.59 388 201.817 388 204.563C388 207.31 385.773 209.536 383.026 209.536Z" fill="#28A034" fill-opacity="0.06"/>
<path d="M363.128 209.536C360.381 209.536 358.154 207.31 358.154 204.563C358.154 201.817 360.381 199.59 363.128 199.59C365.875 199.59 368.103 201.817 368.103 204.563C368.103 207.31 365.875 209.536 363.128 209.536Z" fill="#28A034" fill-opacity="0.06"/>
<path d="M343.231 209.536C340.484 209.536 338.256 207.31 338.256 204.563C338.256 201.817 340.484 199.59 343.231 199.59C345.978 199.59 348.205 201.817 348.205 204.563C348.205 207.31 345.978 209.536 343.231 209.536Z" fill="#28A034" fill-opacity="0.06"/>
<path d="M323.333 209.536C320.586 209.536 318.359 207.31 318.359 204.563C318.359 201.817 320.586 199.59 323.333 199.59C326.081 199.59 328.308 201.817 328.308 204.563C328.308 207.31 326.081 209.536 323.333 209.536Z" fill="#28A034" fill-opacity="0.06"/>
<path d="M303.436 209.536C300.689 209.536 298.462 207.31 298.462 204.563C298.462 201.817 300.689 199.59 303.436 199.59C306.183 199.59 308.41 201.817 308.41 204.563C308.41 207.31 306.183 209.536 303.436 209.536Z" fill="#28A034" fill-opacity="0.06"/>
<path d="M383.026 229.429C380.278 229.429 378.051 227.203 378.051 224.456C378.051 221.709 380.278 219.483 383.026 219.483C385.773 219.483 388 221.709 388 224.456C388 227.203 385.773 229.429 383.026 229.429Z" fill="#28A034" fill-opacity="0.06"/>
<path d="M363.128 229.429C360.381 229.429 358.154 227.203 358.154 224.456C358.154 221.709 360.381 219.483 363.128 219.483C365.875 219.483 368.103 221.709 368.103 224.456C368.103 227.203 365.875 229.429 363.128 229.429Z" fill="#28A034" fill-opacity="0.06"/>
<path d="M343.231 229.429C340.484 229.429 338.256 227.203 338.256 224.456C338.256 221.709 340.484 219.483 343.231 219.483C345.978 219.483 348.205 221.709 348.205 224.456C348.205 227.203 345.978 229.429 343.231 229.429Z" fill="#28A034" fill-opacity="0.06"/>
<path d="M323.333 229.429C320.586 229.429 318.359 227.203 318.359 224.456C318.359 221.709 320.586 219.483 323.333 219.483C326.081 219.483 328.308 221.709 328.308 224.456C328.308 227.203 326.081 229.429 323.333 229.429Z" fill="#28A034" fill-opacity="0.06"/>
<path d="M303.436 229.429C300.689 229.429 298.462 227.203 298.462 224.456C298.462 221.709 300.689 219.483 303.436 219.483C306.183 219.483 308.41 221.709 308.41 224.456C308.41 227.203 306.183 229.429 303.436 229.429Z" fill="#28A034" fill-opacity="0.06"/>
<path d="M383.026 249.322C380.278 249.322 378.051 247.095 378.051 244.349C378.051 241.602 380.278 239.376 383.026 239.376C385.773 239.376 388 241.602 388 244.349C388 247.095 385.773 249.322 383.026 249.322Z" fill="#28A034" fill-opacity="0.06"/>
<path d="M363.128 249.322C360.381 249.322 358.154 247.095 358.154 244.349C358.154 241.602 360.381 239.376 363.128 239.376C365.875 239.376 368.103 241.602 368.103 244.349C368.103 247.095 365.875 249.322 363.128 249.322Z" fill="#28A034" fill-opacity="0.06"/>
<path d="M343.231 249.322C340.484 249.322 338.256 247.095 338.256 244.349C338.256 241.602 340.484 239.376 343.231 239.376C345.978 239.376 348.205 241.602 348.205 244.349C348.205 247.095 345.978 249.322 343.231 249.322Z" fill="#28A034" fill-opacity="0.06"/>
<path d="M323.333 249.322C320.586 249.322 318.359 247.095 318.359 244.349C318.359 241.602 320.586 239.376 323.333 239.376C326.081 239.376 328.308 241.602 328.308 244.349C328.308 247.095 326.081 249.322 323.333 249.322Z" fill="#28A034" fill-opacity="0.06"/>
<path d="M303.436 249.322C300.689 249.322 298.462 247.095 298.462 244.349C298.462 241.602 300.689 239.376 303.436 239.376C306.183 239.376 308.41 241.602 308.41 244.349C308.41 247.095 306.183 249.322 303.436 249.322Z" fill="#28A034" fill-opacity="0.06"/>
<path d="M383.026 269.215C380.278 269.215 378.051 266.988 378.051 264.241C378.051 261.495 380.278 259.268 383.026 259.268C385.773 259.268 388 261.495 388 264.241C388 266.988 385.773 269.215 383.026 269.215Z" fill="#28A034" fill-opacity="0.06"/>
<path d="M363.128 269.215C360.381 269.215 358.154 266.988 358.154 264.241C358.154 261.495 360.381 259.268 363.128 259.268C365.875 259.268 368.103 261.495 368.103 264.241C368.103 266.988 365.875 269.215 363.128 269.215Z" fill="#28A034" fill-opacity="0.06"/>
<path d="M343.231 269.215C340.484 269.215 338.256 266.988 338.256 264.241C338.256 261.495 340.484 259.268 343.231 259.268C345.978 259.268 348.205 261.495 348.205 264.241C348.205 266.988 345.978 269.215 343.231 269.215Z" fill="#28A034" fill-opacity="0.06"/>
<path d="M323.333 269.215C320.586 269.215 318.359 266.988 318.359 264.241C318.359 261.495 320.586 259.268 323.333 259.268C326.081 259.268 328.308 261.495 328.308 264.241C328.308 266.988 326.081 269.215 323.333 269.215Z" fill="#28A034" fill-opacity="0.06"/>
<path d="M303.436 269.215C300.689 269.215 298.462 266.988 298.462 264.241C298.462 261.495 300.689 259.268 303.436 259.268C306.183 259.268 308.41 261.495 308.41 264.241C308.41 266.988 306.183 269.215 303.436 269.215Z" fill="#28A034" fill-opacity="0.06"/>
<path d="M383.026 289.107C380.278 289.107 378.051 286.881 378.051 284.134C378.051 281.388 380.278 279.161 383.026 279.161C385.773 279.161 388 281.388 388 284.134C388 286.881 385.773 289.107 383.026 289.107Z" fill="#28A034" fill-opacity="0.06"/>
<path d="M363.128 289.107C360.381 289.107 358.154 286.881 358.154 284.134C358.154 281.388 360.381 279.161 363.128 279.161C365.875 279.161 368.103 281.388 368.103 284.134C368.103 286.881 365.875 289.107 363.128 289.107Z" fill="#28A034" fill-opacity="0.06"/>
<path d="M343.231 289.107C340.484 289.107 338.256 286.881 338.256 284.134C338.256 281.388 340.484 279.161 343.231 279.161C345.978 279.161 348.205 281.388 348.205 284.134C348.205 286.881 345.978 289.107 343.231 289.107Z" fill="#28A034" fill-opacity="0.06"/>
<path d="M323.333 289.107C320.586 289.107 318.359 286.881 318.359 284.134C318.359 281.388 320.586 279.161 323.333 279.161C326.081 279.161 328.308 281.388 328.308 284.134C328.308 286.881 326.081 289.107 323.333 289.107Z" fill="#28A034" fill-opacity="0.06"/>
<path d="M303.436 289.107C300.689 289.107 298.462 286.881 298.462 284.134C298.462 281.388 300.689 279.161 303.436 279.161C306.183 279.161 308.41 281.388 308.41 284.134C308.41 286.881 306.183 289.107 303.436 289.107Z" fill="#28A034" fill-opacity="0.06"/>
<path d="M383.026 309C380.278 309 378.051 306.773 378.051 304.027C378.051 301.28 380.278 299.054 383.026 299.054C385.773 299.054 388 301.28 388 304.027C388 306.773 385.773 309 383.026 309Z" fill="#28A034" fill-opacity="0.06"/>
<path d="M363.128 309C360.381 309 358.154 306.773 358.154 304.027C358.154 301.28 360.381 299.054 363.128 299.054C365.875 299.054 368.103 301.28 368.103 304.027C368.103 306.773 365.875 309 363.128 309Z" fill="#28A034" fill-opacity="0.06"/>
<path d="M343.231 309C340.484 309 338.256 306.773 338.256 304.027C338.256 301.28 340.484 299.054 343.231 299.054C345.978 299.054 348.205 301.28 348.205 304.027C348.205 306.773 345.978 309 343.231 309Z" fill="#28A034" fill-opacity="0.06"/>
<path d="M323.333 309C320.586 309 318.359 306.773 318.359 304.027C318.359 301.28 320.586 299.054 323.333 299.054C326.081 299.054 328.308 301.28 328.308 304.027C328.308 306.773 326.081 309 323.333 309Z" fill="#28A034" fill-opacity="0.06"/>
<path d="M303.436 309C300.689 309 298.462 306.773 298.462 304.027C298.462 301.28 300.689 299.054 303.436 299.054C306.183 299.054 308.41 301.28 308.41 304.027C308.41 306.773 306.183 309 303.436 309Z" fill="#28A034" fill-opacity="0.06"/>
<path d="M184.051 169.751C181.304 169.751 179.077 167.525 179.077 164.778C179.077 162.031 181.304 159.805 184.051 159.805C186.799 159.805 189.026 162.031 189.026 164.778C189.026 167.525 186.799 169.751 184.051 169.751Z" fill="#28A034" fill-opacity="0.06"/>
<path d="M164.154 169.751C161.407 169.751 159.179 167.525 159.179 164.778C159.179 162.031 161.407 159.805 164.154 159.805C166.901 159.805 169.128 162.031 169.128 164.778C169.128 167.525 166.901 169.751 164.154 169.751Z" fill="#28A034" fill-opacity="0.06"/>
<path d="M144.256 169.751C141.509 169.751 139.282 167.525 139.282 164.778C139.282 162.031 141.509 159.805 144.256 159.805C147.004 159.805 149.231 162.031 149.231 164.778C149.231 167.525 147.004 169.751 144.256 169.751Z" fill="#28A034" fill-opacity="0.06"/>
<path d="M124.359 169.751C121.612 169.751 119.385 167.525 119.385 164.778C119.385 162.031 121.612 159.805 124.359 159.805C127.106 159.805 129.333 162.031 129.333 164.778C129.333 167.525 127.106 169.751 124.359 169.751Z" fill="#28A034" fill-opacity="0.06"/>
<path d="M104.462 169.751C101.714 169.751 99.4872 167.525 99.4872 164.778C99.4872 162.031 101.714 159.805 104.462 159.805C107.209 159.805 109.436 162.031 109.436 164.778C109.436 167.525 107.209 169.751 104.462 169.751Z" fill="#28A034" fill-opacity="0.06"/>
<path d="M184.051 189.644C181.304 189.644 179.077 187.417 179.077 184.671C179.077 181.924 181.304 179.697 184.051 179.697C186.799 179.697 189.026 181.924 189.026 184.671C189.026 187.417 186.799 189.644 184.051 189.644Z" fill="#28A034" fill-opacity="0.06"/>
<path d="M164.154 189.644C161.407 189.644 159.179 187.417 159.179 184.671C159.179 181.924 161.407 179.697 164.154 179.697C166.901 179.697 169.128 181.924 169.128 184.671C169.128 187.417 166.901 189.644 164.154 189.644Z" fill="#28A034" fill-opacity="0.06"/>
<path d="M144.256 189.644C141.509 189.644 139.282 187.417 139.282 184.671C139.282 181.924 141.509 179.697 144.256 179.697C147.004 179.697 149.231 181.924 149.231 184.671C149.231 187.417 147.004 189.644 144.256 189.644Z" fill="#28A034" fill-opacity="0.06"/>
<path d="M124.359 189.644C121.612 189.644 119.385 187.417 119.385 184.671C119.385 181.924 121.612 179.697 124.359 179.697C127.106 179.697 129.333 181.924 129.333 184.671C129.333 187.417 127.106 189.644 124.359 189.644Z" fill="#28A034" fill-opacity="0.06"/>
<path d="M104.462 189.644C101.714 189.644 99.4872 187.417 99.4872 184.671C99.4872 181.924 101.714 179.697 104.462 179.697C107.209 179.697 109.436 181.924 109.436 184.671C109.436 187.417 107.209 189.644 104.462 189.644Z" fill="#28A034" fill-opacity="0.06"/>
<path d="M184.051 209.536C181.304 209.536 179.077 207.31 179.077 204.563C179.077 201.817 181.304 199.59 184.051 199.59C186.799 199.59 189.026 201.817 189.026 204.563C189.026 207.31 186.799 209.536 184.051 209.536Z" fill="#28A034" fill-opacity="0.06"/>
<path d="M164.154 209.536C161.407 209.536 159.179 207.31 159.179 204.563C159.179 201.817 161.407 199.59 164.154 199.59C166.901 199.59 169.128 201.817 169.128 204.563C169.128 207.31 166.901 209.536 164.154 209.536Z" fill="#28A034" fill-opacity="0.06"/>
<path d="M144.256 209.536C141.509 209.536 139.282 207.31 139.282 204.563C139.282 201.817 141.509 199.59 144.256 199.59C147.004 199.59 149.231 201.817 149.231 204.563C149.231 207.31 147.004 209.536 144.256 209.536Z" fill="#28A034" fill-opacity="0.06"/>
<path d="M124.359 209.536C121.612 209.536 119.385 207.31 119.385 204.563C119.385 201.817 121.612 199.59 124.359 199.59C127.106 199.59 129.333 201.817 129.333 204.563C129.333 207.31 127.106 209.536 124.359 209.536Z" fill="#28A034" fill-opacity="0.06"/>
<path d="M104.462 209.536C101.714 209.536 99.4872 207.31 99.4872 204.563C99.4872 201.817 101.714 199.59 104.462 199.59C107.209 199.59 109.436 201.817 109.436 204.563C109.436 207.31 107.209 209.536 104.462 209.536Z" fill="#28A034" fill-opacity="0.06"/>
<path d="M184.051 229.429C181.304 229.429 179.077 227.203 179.077 224.456C179.077 221.709 181.304 219.483 184.051 219.483C186.799 219.483 189.026 221.709 189.026 224.456C189.026 227.203 186.799 229.429 184.051 229.429Z" fill="#28A034" fill-opacity="0.06"/>
<path d="M164.154 229.429C161.407 229.429 159.179 227.203 159.179 224.456C159.179 221.709 161.407 219.483 164.154 219.483C166.901 219.483 169.128 221.709 169.128 224.456C169.128 227.203 166.901 229.429 164.154 229.429Z" fill="#28A034" fill-opacity="0.06"/>
<path d="M144.256 229.429C141.509 229.429 139.282 227.203 139.282 224.456C139.282 221.709 141.509 219.483 144.256 219.483C147.004 219.483 149.231 221.709 149.231 224.456C149.231 227.203 147.004 229.429 144.256 229.429Z" fill="#28A034" fill-opacity="0.06"/>
<path d="M124.359 229.429C121.612 229.429 119.385 227.203 119.385 224.456C119.385 221.709 121.612 219.483 124.359 219.483C127.106 219.483 129.333 221.709 129.333 224.456C129.333 227.203 127.106 229.429 124.359 229.429Z" fill="#28A034" fill-opacity="0.06"/>
<path d="M104.462 229.429C101.714 229.429 99.4872 227.203 99.4872 224.456C99.4872 221.709 101.714 219.483 104.462 219.483C107.209 219.483 109.436 221.709 109.436 224.456C109.436 227.203 107.209 229.429 104.462 229.429Z" fill="#28A034" fill-opacity="0.06"/>
<path d="M184.051 249.322C181.304 249.322 179.077 247.095 179.077 244.349C179.077 241.602 181.304 239.376 184.051 239.376C186.799 239.376 189.026 241.602 189.026 244.349C189.026 247.095 186.799 249.322 184.051 249.322Z" fill="#28A034" fill-opacity="0.06"/>
<path d="M164.154 249.322C161.407 249.322 159.179 247.095 159.179 244.349C159.179 241.602 161.407 239.376 164.154 239.376C166.901 239.376 169.128 241.602 169.128 244.349C169.128 247.095 166.901 249.322 164.154 249.322Z" fill="#28A034" fill-opacity="0.06"/>
<path d="M144.256 249.322C141.509 249.322 139.282 247.095 139.282 244.349C139.282 241.602 141.509 239.376 144.256 239.376C147.004 239.376 149.231 241.602 149.231 244.349C149.231 247.095 147.004 249.322 144.256 249.322Z" fill="#28A034" fill-opacity="0.06"/>
<path d="M124.359 249.322C121.612 249.322 119.385 247.095 119.385 244.349C119.385 241.602 121.612 239.376 124.359 239.376C127.106 239.376 129.333 241.602 129.333 244.349C129.333 247.095 127.106 249.322 124.359 249.322Z" fill="#28A034" fill-opacity="0.06"/>
<path d="M104.462 249.322C101.714 249.322 99.4872 247.095 99.4872 244.349C99.4872 241.602 101.714 239.376 104.462 239.376C107.209 239.376 109.436 241.602 109.436 244.349C109.436 247.095 107.209 249.322 104.462 249.322Z" fill="#28A034" fill-opacity="0.06"/>
<path d="M184.051 269.215C181.304 269.215 179.077 266.988 179.077 264.241C179.077 261.495 181.304 259.268 184.051 259.268C186.799 259.268 189.026 261.495 189.026 264.241C189.026 266.988 186.799 269.215 184.051 269.215Z" fill="#28A034" fill-opacity="0.06"/>
<path d="M164.154 269.215C161.407 269.215 159.179 266.988 159.179 264.241C159.179 261.495 161.407 259.268 164.154 259.268C166.901 259.268 169.128 261.495 169.128 264.241C169.128 266.988 166.901 269.215 164.154 269.215Z" fill="#28A034" fill-opacity="0.06"/>
<path d="M144.256 269.215C141.509 269.215 139.282 266.988 139.282 264.241C139.282 261.495 141.509 259.268 144.256 259.268C147.004 259.268 149.231 261.495 149.231 264.241C149.231 266.988 147.004 269.215 144.256 269.215Z" fill="#28A034" fill-opacity="0.06"/>
<path d="M124.359 269.215C121.612 269.215 119.385 266.988 119.385 264.241C119.385 261.495 121.612 259.268 124.359 259.268C127.106 259.268 129.333 261.495 129.333 264.241C129.333 266.988 127.106 269.215 124.359 269.215Z" fill="#28A034" fill-opacity="0.06"/>
<path d="M104.462 269.215C101.714 269.215 99.4872 266.988 99.4872 264.241C99.4872 261.495 101.714 259.268 104.462 259.268C107.209 259.268 109.436 261.495 109.436 264.241C109.436 266.988 107.209 269.215 104.462 269.215Z" fill="#28A034" fill-opacity="0.06"/>
<path d="M184.051 289.107C181.304 289.107 179.077 286.881 179.077 284.134C179.077 281.388 181.304 279.161 184.051 279.161C186.799 279.161 189.026 281.388 189.026 284.134C189.026 286.881 186.799 289.107 184.051 289.107Z" fill="#28A034" fill-opacity="0.06"/>
<path d="M164.154 289.107C161.407 289.107 159.179 286.881 159.179 284.134C159.179 281.388 161.407 279.161 164.154 279.161C166.901 279.161 169.128 281.388 169.128 284.134C169.128 286.881 166.901 289.107 164.154 289.107Z" fill="#28A034" fill-opacity="0.06"/>
<path d="M144.256 289.107C141.509 289.107 139.282 286.881 139.282 284.134C139.282 281.388 141.509 279.161 144.256 279.161C147.004 279.161 149.231 281.388 149.231 284.134C149.231 286.881 147.004 289.107 144.256 289.107Z" fill="#28A034" fill-opacity="0.06"/>
<path d="M124.359 289.107C121.612 289.107 119.385 286.881 119.385 284.134C119.385 281.388 121.612 279.161 124.359 279.161C127.106 279.161 129.333 281.388 129.333 284.134C129.333 286.881 127.106 289.107 124.359 289.107Z" fill="#28A034" fill-opacity="0.06"/>
<path d="M104.462 289.107C101.714 289.107 99.4872 286.881 99.4872 284.134C99.4872 281.388 101.714 279.161 104.462 279.161C107.209 279.161 109.436 281.388 109.436 284.134C109.436 286.881 107.209 289.107 104.462 289.107Z" fill="#28A034" fill-opacity="0.06"/>
<path d="M184.051 309C181.304 309 179.077 306.773 179.077 304.027C179.077 301.28 181.304 299.054 184.051 299.054C186.799 299.054 189.026 301.28 189.026 304.027C189.026 306.773 186.799 309 184.051 309Z" fill="#28A034" fill-opacity="0.06"/>
<path d="M164.154 309C161.407 309 159.179 306.773 159.179 304.027C159.179 301.28 161.407 299.054 164.154 299.054C166.901 299.054 169.128 301.28 169.128 304.027C169.128 306.773 166.901 309 164.154 309Z" fill="#28A034" fill-opacity="0.06"/>
<path d="M144.256 309C141.509 309 139.282 306.773 139.282 304.027C139.282 301.28 141.509 299.054 144.256 299.054C147.004 299.054 149.231 301.28 149.231 304.027C149.231 306.773 147.004 309 144.256 309Z" fill="#28A034" fill-opacity="0.06"/>
<path d="M124.359 309C121.612 309 119.385 306.773 119.385 304.027C119.385 301.28 121.612 299.054 124.359 299.054C127.106 299.054 129.333 301.28 129.333 304.027C129.333 306.773 127.106 309 124.359 309Z" fill="#28A034" fill-opacity="0.06"/>
<path d="M104.462 309C101.714 309 99.4872 306.773 99.4872 304.027C99.4872 301.28 101.714 299.054 104.462 299.054C107.209 299.054 109.436 301.28 109.436 304.027C109.436 306.773 107.209 309 104.462 309Z" fill="#28A034" fill-opacity="0.06"/>
<path d="M283.538 9.94635C280.791 9.94635 278.564 7.71979 278.564 4.97318C278.564 2.22657 280.791 0 283.538 0C286.286 0 288.513 2.22657 288.513 4.97318C288.513 7.71979 286.286 9.94635 283.538 9.94635Z" fill="#28A034" fill-opacity="0.06"/>
<path d="M263.641 9.94635C260.894 9.94635 258.667 7.71979 258.667 4.97318C258.667 2.22657 260.894 0 263.641 0C266.388 0 268.615 2.22657 268.615 4.97318C268.615 7.71979 266.388 9.94635 263.641 9.94635Z" fill="#28A034" fill-opacity="0.06"/>
<path d="M243.744 9.94635C240.996 9.94635 238.769 7.71979 238.769 4.97318C238.769 2.22657 240.996 0 243.744 0C246.491 0 248.718 2.22657 248.718 4.97318C248.718 7.71979 246.491 9.94635 243.744 9.94635Z" fill="#28A034" fill-opacity="0.06"/>
<path d="M223.846 9.94635C221.099 9.94635 218.872 7.71979 218.872 4.97318C218.872 2.22657 221.099 0 223.846 0C226.593 0 228.821 2.22657 228.821 4.97318C228.821 7.71979 226.593 9.94635 223.846 9.94635Z" fill="#28A034" fill-opacity="0.06"/>
<path d="M203.949 9.94635C201.201 9.94635 198.974 7.71979 198.974 4.97318C198.974 2.22657 201.201 0 203.949 0C206.696 0 208.923 2.22657 208.923 4.97318C208.923 7.71979 206.696 9.94635 203.949 9.94635Z" fill="#28A034" fill-opacity="0.06"/>
<path d="M283.538 29.8391C280.791 29.8391 278.564 27.6125 278.564 24.8659C278.564 22.1193 280.791 19.8927 283.538 19.8927C286.286 19.8927 288.513 22.1193 288.513 24.8659C288.513 27.6125 286.286 29.8391 283.538 29.8391Z" fill="#28A034" fill-opacity="0.06"/>
<path d="M263.641 29.8391C260.894 29.8391 258.667 27.6125 258.667 24.8659C258.667 22.1193 260.894 19.8927 263.641 19.8927C266.388 19.8927 268.615 22.1193 268.615 24.8659C268.615 27.6125 266.388 29.8391 263.641 29.8391Z" fill="#28A034" fill-opacity="0.06"/>
<path d="M243.744 29.8391C240.996 29.8391 238.769 27.6125 238.769 24.8659C238.769 22.1193 240.996 19.8927 243.744 19.8927C246.491 19.8927 248.718 22.1193 248.718 24.8659C248.718 27.6125 246.491 29.8391 243.744 29.8391Z" fill="#28A034" fill-opacity="0.06"/>
<path d="M223.846 29.8391C221.099 29.8391 218.872 27.6125 218.872 24.8659C218.872 22.1193 221.099 19.8927 223.846 19.8927C226.593 19.8927 228.821 22.1193 228.821 24.8659C228.821 27.6125 226.593 29.8391 223.846 29.8391Z" fill="#28A034" fill-opacity="0.06"/>
<path d="M203.949 29.8391C201.201 29.8391 198.974 27.6125 198.974 24.8659C198.974 22.1193 201.201 19.8927 203.949 19.8927C206.696 19.8927 208.923 22.1193 208.923 24.8659C208.923 27.6125 206.696 29.8391 203.949 29.8391Z" fill="#28A034" fill-opacity="0.06"/>
<path d="M283.538 49.7318C280.791 49.7318 278.564 47.5052 278.564 44.7586C278.564 42.012 280.791 39.7854 283.538 39.7854C286.286 39.7854 288.513 42.012 288.513 44.7586C288.513 47.5052 286.286 49.7318 283.538 49.7318Z" fill="#28A034" fill-opacity="0.06"/>
<path d="M263.641 49.7318C260.894 49.7318 258.667 47.5052 258.667 44.7586C258.667 42.012 260.894 39.7854 263.641 39.7854C266.388 39.7854 268.615 42.012 268.615 44.7586C268.615 47.5052 266.388 49.7318 263.641 49.7318Z" fill="#28A034" fill-opacity="0.06"/>
<path d="M243.744 49.7318C240.996 49.7318 238.769 47.5052 238.769 44.7586C238.769 42.012 240.996 39.7854 243.744 39.7854C246.491 39.7854 248.718 42.012 248.718 44.7586C248.718 47.5052 246.491 49.7318 243.744 49.7318Z" fill="#28A034" fill-opacity="0.06"/>
<path d="M223.846 49.7318C221.099 49.7318 218.872 47.5052 218.872 44.7586C218.872 42.012 221.099 39.7854 223.846 39.7854C226.593 39.7854 228.821 42.012 228.821 44.7586C228.821 47.5052 226.593 49.7318 223.846 49.7318Z" fill="#28A034" fill-opacity="0.06"/>
<path d="M203.949 49.7318C201.201 49.7318 198.974 47.5052 198.974 44.7586C198.974 42.012 201.201 39.7854 203.949 39.7854C206.696 39.7854 208.923 42.012 208.923 44.7586C208.923 47.5052 206.696 49.7318 203.949 49.7318Z" fill="#28A034" fill-opacity="0.06"/>
<path d="M283.538 69.6245C280.791 69.6245 278.564 67.3979 278.564 64.6513C278.564 61.9047 280.791 59.6781 283.538 59.6781C286.286 59.6781 288.513 61.9047 288.513 64.6513C288.513 67.3979 286.286 69.6245 283.538 69.6245Z" fill="#28A034" fill-opacity="0.06"/>
<path d="M263.641 69.6245C260.894 69.6245 258.667 67.3979 258.667 64.6513C258.667 61.9047 260.894 59.6781 263.641 59.6781C266.388 59.6781 268.615 61.9047 268.615 64.6513C268.615 67.3979 266.388 69.6245 263.641 69.6245Z" fill="#28A034" fill-opacity="0.06"/>
<path d="M243.744 69.6245C240.996 69.6245 238.769 67.3979 238.769 64.6513C238.769 61.9047 240.996 59.6781 243.744 59.6781C246.491 59.6781 248.718 61.9047 248.718 64.6513C248.718 67.3979 246.491 69.6245 243.744 69.6245Z" fill="#28A034" fill-opacity="0.06"/>
<path d="M223.846 69.6245C221.099 69.6245 218.872 67.3979 218.872 64.6513C218.872 61.9047 221.099 59.6781 223.846 59.6781C226.593 59.6781 228.821 61.9047 228.821 64.6513C228.821 67.3979 226.593 69.6245 223.846 69.6245Z" fill="#28A034" fill-opacity="0.06"/>
<path d="M203.949 69.6245C201.201 69.6245 198.974 67.3979 198.974 64.6513C198.974 61.9047 201.201 59.6781 203.949 59.6781C206.696 59.6781 208.923 61.9047 208.923 64.6513C208.923 67.3979 206.696 69.6245 203.949 69.6245Z" fill="#28A034" fill-opacity="0.06"/>
<path d="M283.538 89.5172C280.791 89.5172 278.564 87.2906 278.564 84.544C278.564 81.7974 280.791 79.5708 283.538 79.5708C286.286 79.5708 288.513 81.7974 288.513 84.544C288.513 87.2906 286.286 89.5172 283.538 89.5172Z" fill="#28A034" fill-opacity="0.06"/>
<path d="M263.641 89.5172C260.894 89.5172 258.667 87.2906 258.667 84.544C258.667 81.7974 260.894 79.5708 263.641 79.5708C266.388 79.5708 268.615 81.7974 268.615 84.544C268.615 87.2906 266.388 89.5172 263.641 89.5172Z" fill="#28A034" fill-opacity="0.06"/>
<path d="M243.744 89.5172C240.996 89.5172 238.769 87.2906 238.769 84.544C238.769 81.7974 240.996 79.5708 243.744 79.5708C246.491 79.5708 248.718 81.7974 248.718 84.544C248.718 87.2906 246.491 89.5172 243.744 89.5172Z" fill="#28A034" fill-opacity="0.06"/>
<path d="M223.846 89.5172C221.099 89.5172 218.872 87.2906 218.872 84.544C218.872 81.7974 221.099 79.5708 223.846 79.5708C226.593 79.5708 228.821 81.7974 228.821 84.544C228.821 87.2906 226.593 89.5172 223.846 89.5172Z" fill="#28A034" fill-opacity="0.06"/>
<path d="M203.949 89.5172C201.201 89.5172 198.974 87.2906 198.974 84.544C198.974 81.7974 201.201 79.5708 203.949 79.5708C206.696 79.5708 208.923 81.7974 208.923 84.544C208.923 87.2906 206.696 89.5172 203.949 89.5172Z" fill="#28A034" fill-opacity="0.06"/>
<path d="M283.538 109.41C280.791 109.41 278.564 107.183 278.564 104.437C278.564 101.69 280.791 99.4635 283.538 99.4635C286.286 99.4635 288.513 101.69 288.513 104.437C288.513 107.183 286.286 109.41 283.538 109.41Z" fill="#28A034" fill-opacity="0.06"/>
<path d="M263.641 109.41C260.894 109.41 258.667 107.183 258.667 104.437C258.667 101.69 260.894 99.4635 263.641 99.4635C266.388 99.4635 268.615 101.69 268.615 104.437C268.615 107.183 266.388 109.41 263.641 109.41Z" fill="#28A034" fill-opacity="0.06"/>
<path d="M243.744 109.41C240.996 109.41 238.769 107.183 238.769 104.437C238.769 101.69 240.996 99.4635 243.744 99.4635C246.491 99.4635 248.718 101.69 248.718 104.437C248.718 107.183 246.491 109.41 243.744 109.41Z" fill="#28A034" fill-opacity="0.06"/>
<path d="M223.846 109.41C221.099 109.41 218.872 107.183 218.872 104.437C218.872 101.69 221.099 99.4635 223.846 99.4635C226.593 99.4635 228.821 101.69 228.821 104.437C228.821 107.183 226.593 109.41 223.846 109.41Z" fill="#28A034" fill-opacity="0.06"/>
<path d="M203.949 109.41C201.201 109.41 198.974 107.183 198.974 104.437C198.974 101.69 201.201 99.4635 203.949 99.4635C206.696 99.4635 208.923 101.69 208.923 104.437C208.923 107.183 206.696 109.41 203.949 109.41Z" fill="#28A034" fill-opacity="0.06"/>
<path d="M283.538 129.303C280.791 129.303 278.564 127.076 278.564 124.329C278.564 121.583 280.791 119.356 283.538 119.356C286.286 119.356 288.513 121.583 288.513 124.329C288.513 127.076 286.286 129.303 283.538 129.303Z" fill="#28A034" fill-opacity="0.06"/>
<path d="M263.641 129.303C260.894 129.303 258.667 127.076 258.667 124.329C258.667 121.583 260.894 119.356 263.641 119.356C266.388 119.356 268.615 121.583 268.615 124.329C268.615 127.076 266.388 129.303 263.641 129.303Z" fill="#28A034" fill-opacity="0.06"/>
<path d="M243.744 129.303C240.996 129.303 238.769 127.076 238.769 124.329C238.769 121.583 240.996 119.356 243.744 119.356C246.491 119.356 248.718 121.583 248.718 124.329C248.718 127.076 246.491 129.303 243.744 129.303Z" fill="#28A034" fill-opacity="0.06"/>
<path d="M223.846 129.303C221.099 129.303 218.872 127.076 218.872 124.329C218.872 121.583 221.099 119.356 223.846 119.356C226.593 119.356 228.821 121.583 228.821 124.329C228.821 127.076 226.593 129.303 223.846 129.303Z" fill="#28A034" fill-opacity="0.06"/>
<path d="M203.949 129.303C201.201 129.303 198.974 127.076 198.974 124.329C198.974 121.583 201.201 119.356 203.949 119.356C206.696 119.356 208.923 121.583 208.923 124.329C208.923 127.076 206.696 129.303 203.949 129.303Z" fill="#28A034" fill-opacity="0.06"/>
<path d="M283.538 149.195C280.791 149.195 278.564 146.969 278.564 144.222C278.564 141.475 280.791 139.249 283.538 139.249C286.286 139.249 288.513 141.475 288.513 144.222C288.513 146.969 286.286 149.195 283.538 149.195Z" fill="#28A034" fill-opacity="0.06"/>
<path d="M263.641 149.195C260.894 149.195 258.667 146.969 258.667 144.222C258.667 141.475 260.894 139.249 263.641 139.249C266.388 139.249 268.615 141.475 268.615 144.222C268.615 146.969 266.388 149.195 263.641 149.195Z" fill="#28A034" fill-opacity="0.06"/>
<path d="M243.744 149.195C240.996 149.195 238.769 146.969 238.769 144.222C238.769 141.475 240.996 139.249 243.744 139.249C246.491 139.249 248.718 141.475 248.718 144.222C248.718 146.969 246.491 149.195 243.744 149.195Z" fill="#28A034" fill-opacity="0.06"/>
<path d="M223.846 149.195C221.099 149.195 218.872 146.969 218.872 144.222C218.872 141.475 221.099 139.249 223.846 139.249C226.593 139.249 228.821 141.475 228.821 144.222C228.821 146.969 226.593 149.195 223.846 149.195Z" fill="#28A034" fill-opacity="0.06"/>
<path d="M203.949 149.195C201.201 149.195 198.974 146.969 198.974 144.222C198.974 141.475 201.201 139.249 203.949 139.249C206.696 139.249 208.923 141.475 208.923 144.222C208.923 146.969 206.696 149.195 203.949 149.195Z" fill="#28A034" fill-opacity="0.06"/>
<path d="M84.5641 9.94635C81.8168 9.94635 79.5897 7.71979 79.5897 4.97318C79.5897 2.22657 81.8168 0 84.5641 0C87.3114 0 89.5385 2.22657 89.5385 4.97318C89.5385 7.71979 87.3114 9.94635 84.5641 9.94635Z" fill="#28A034" fill-opacity="0.06"/>
<path d="M64.6667 9.94635C61.9194 9.94635 59.6923 7.71979 59.6923 4.97318C59.6923 2.22657 61.9194 0 64.6667 0C67.4139 0 69.641 2.22657 69.641 4.97318C69.641 7.71979 67.4139 9.94635 64.6667 9.94635Z" fill="#28A034" fill-opacity="0.06"/>
<path d="M44.7692 9.94635C42.022 9.94635 39.7949 7.71979 39.7949 4.97318C39.7949 2.22657 42.022 0 44.7692 0C47.5165 0 49.7436 2.22657 49.7436 4.97318C49.7436 7.71979 47.5165 9.94635 44.7692 9.94635Z" fill="#28A034" fill-opacity="0.06"/>
<path d="M24.8718 9.94635C22.1245 9.94635 19.8974 7.71979 19.8974 4.97318C19.8974 2.22657 22.1245 0 24.8718 0C27.619 0 29.8461 2.22657 29.8461 4.97318C29.8461 7.71979 27.619 9.94635 24.8718 9.94635Z" fill="#28A034" fill-opacity="0.06"/>
<path d="M4.97433 9.94635C2.22708 9.94635 0 7.71979 0 4.97318C0 2.22657 2.22708 0 4.97433 0C7.72162 0 9.9487 2.22657 9.9487 4.97318C9.9487 7.71979 7.72162 9.94635 4.97433 9.94635Z" fill="#28A034" fill-opacity="0.06"/>
<path d="M84.5641 29.8391C81.8168 29.8391 79.5897 27.6125 79.5897 24.8659C79.5897 22.1193 81.8168 19.8927 84.5641 19.8927C87.3114 19.8927 89.5385 22.1193 89.5385 24.8659C89.5385 27.6125 87.3114 29.8391 84.5641 29.8391Z" fill="#28A034" fill-opacity="0.06"/>
<path d="M64.6667 29.8391C61.9194 29.8391 59.6923 27.6125 59.6923 24.8659C59.6923 22.1193 61.9194 19.8927 64.6667 19.8927C67.4139 19.8927 69.641 22.1193 69.641 24.8659C69.641 27.6125 67.4139 29.8391 64.6667 29.8391Z" fill="#28A034" fill-opacity="0.06"/>
<path d="M44.7692 29.8391C42.022 29.8391 39.7949 27.6125 39.7949 24.8659C39.7949 22.1193 42.022 19.8927 44.7692 19.8927C47.5165 19.8927 49.7436 22.1193 49.7436 24.8659C49.7436 27.6125 47.5165 29.8391 44.7692 29.8391Z" fill="#28A034" fill-opacity="0.06"/>
<path d="M24.8718 29.8391C22.1245 29.8391 19.8974 27.6125 19.8974 24.8659C19.8974 22.1193 22.1245 19.8927 24.8718 19.8927C27.619 19.8927 29.8461 22.1193 29.8461 24.8659C29.8461 27.6125 27.619 29.8391 24.8718 29.8391Z" fill="#28A034" fill-opacity="0.06"/>
<path d="M4.97433 29.8391C2.22708 29.8391 0 27.6125 0 24.8659C0 22.1193 2.22708 19.8927 4.97433 19.8927C7.72162 19.8927 9.9487 22.1193 9.9487 24.8659C9.9487 27.6125 7.72162 29.8391 4.97433 29.8391Z" fill="#28A034" fill-opacity="0.06"/>
<path d="M84.5641 49.7318C81.8168 49.7318 79.5897 47.5052 79.5897 44.7586C79.5897 42.012 81.8168 39.7854 84.5641 39.7854C87.3114 39.7854 89.5385 42.012 89.5385 44.7586C89.5385 47.5052 87.3114 49.7318 84.5641 49.7318Z" fill="#28A034" fill-opacity="0.06"/>
<path d="M64.6667 49.7318C61.9194 49.7318 59.6923 47.5052 59.6923 44.7586C59.6923 42.012 61.9194 39.7854 64.6667 39.7854C67.4139 39.7854 69.641 42.012 69.641 44.7586C69.641 47.5052 67.4139 49.7318 64.6667 49.7318Z" fill="#28A034" fill-opacity="0.06"/>
<path d="M44.7692 49.7318C42.022 49.7318 39.7949 47.5052 39.7949 44.7586C39.7949 42.012 42.022 39.7854 44.7692 39.7854C47.5165 39.7854 49.7436 42.012 49.7436 44.7586C49.7436 47.5052 47.5165 49.7318 44.7692 49.7318Z" fill="#28A034" fill-opacity="0.06"/>
<path d="M24.8718 49.7318C22.1245 49.7318 19.8974 47.5052 19.8974 44.7586C19.8974 42.012 22.1245 39.7854 24.8718 39.7854C27.619 39.7854 29.8461 42.012 29.8461 44.7586C29.8461 47.5052 27.619 49.7318 24.8718 49.7318Z" fill="#28A034" fill-opacity="0.06"/>
<path d="M4.97433 49.7318C2.22708 49.7318 0 47.5052 0 44.7586C0 42.012 2.22708 39.7854 4.97433 39.7854C7.72162 39.7854 9.9487 42.012 9.9487 44.7586C9.9487 47.5052 7.72162 49.7318 4.97433 49.7318Z" fill="#28A034" fill-opacity="0.06"/>
<path d="M84.5641 69.6245C81.8168 69.6245 79.5897 67.3979 79.5897 64.6513C79.5897 61.9047 81.8168 59.6781 84.5641 59.6781C87.3114 59.6781 89.5385 61.9047 89.5385 64.6513C89.5385 67.3979 87.3114 69.6245 84.5641 69.6245Z" fill="#28A034" fill-opacity="0.06"/>
<path d="M64.6667 69.6245C61.9194 69.6245 59.6923 67.3979 59.6923 64.6513C59.6923 61.9047 61.9194 59.6781 64.6667 59.6781C67.4139 59.6781 69.641 61.9047 69.641 64.6513C69.641 67.3979 67.4139 69.6245 64.6667 69.6245Z" fill="#28A034" fill-opacity="0.06"/>
<path d="M44.7692 69.6245C42.022 69.6245 39.7949 67.3979 39.7949 64.6513C39.7949 61.9047 42.022 59.6781 44.7692 59.6781C47.5165 59.6781 49.7436 61.9047 49.7436 64.6513C49.7436 67.3979 47.5165 69.6245 44.7692 69.6245Z" fill="#28A034" fill-opacity="0.06"/>
<path d="M24.8718 69.6245C22.1245 69.6245 19.8974 67.3979 19.8974 64.6513C19.8974 61.9047 22.1245 59.6781 24.8718 59.6781C27.619 59.6781 29.8461 61.9047 29.8461 64.6513C29.8461 67.3979 27.619 69.6245 24.8718 69.6245Z" fill="#28A034" fill-opacity="0.06"/>
<path d="M4.97433 69.6245C2.22708 69.6245 0 67.3979 0 64.6513C0 61.9047 2.22708 59.6781 4.97433 59.6781C7.72162 59.6781 9.9487 61.9047 9.9487 64.6513C9.9487 67.3979 7.72162 69.6245 4.97433 69.6245Z" fill="#28A034" fill-opacity="0.06"/>
<path d="M84.5641 89.5172C81.8168 89.5172 79.5897 87.2906 79.5897 84.544C79.5897 81.7974 81.8168 79.5708 84.5641 79.5708C87.3114 79.5708 89.5385 81.7974 89.5385 84.544C89.5385 87.2906 87.3114 89.5172 84.5641 89.5172Z" fill="#28A034" fill-opacity="0.06"/>
<path d="M64.6667 89.5172C61.9194 89.5172 59.6923 87.2906 59.6923 84.544C59.6923 81.7974 61.9194 79.5708 64.6667 79.5708C67.4139 79.5708 69.641 81.7974 69.641 84.544C69.641 87.2906 67.4139 89.5172 64.6667 89.5172Z" fill="#28A034" fill-opacity="0.06"/>
<path d="M44.7692 89.5172C42.022 89.5172 39.7949 87.2906 39.7949 84.544C39.7949 81.7974 42.022 79.5708 44.7692 79.5708C47.5165 79.5708 49.7436 81.7974 49.7436 84.544C49.7436 87.2906 47.5165 89.5172 44.7692 89.5172Z" fill="#28A034" fill-opacity="0.06"/>
<path d="M24.8718 89.5172C22.1245 89.5172 19.8974 87.2906 19.8974 84.544C19.8974 81.7974 22.1245 79.5708 24.8718 79.5708C27.619 79.5708 29.8461 81.7974 29.8461 84.544C29.8461 87.2906 27.619 89.5172 24.8718 89.5172Z" fill="#28A034" fill-opacity="0.06"/>
<path d="M4.97433 89.5172C2.22708 89.5172 0 87.2906 0 84.544C0 81.7974 2.22708 79.5708 4.97433 79.5708C7.72162 79.5708 9.9487 81.7974 9.9487 84.544C9.9487 87.2906 7.72162 89.5172 4.97433 89.5172Z" fill="#28A034" fill-opacity="0.06"/>
<path d="M84.5641 109.41C81.8168 109.41 79.5897 107.183 79.5897 104.437C79.5897 101.69 81.8168 99.4635 84.5641 99.4635C87.3114 99.4635 89.5385 101.69 89.5385 104.437C89.5385 107.183 87.3114 109.41 84.5641 109.41Z" fill="#28A034" fill-opacity="0.06"/>
<path d="M64.6667 109.41C61.9194 109.41 59.6923 107.183 59.6923 104.437C59.6923 101.69 61.9194 99.4635 64.6667 99.4635C67.4139 99.4635 69.641 101.69 69.641 104.437C69.641 107.183 67.4139 109.41 64.6667 109.41Z" fill="#28A034" fill-opacity="0.06"/>
<path d="M44.7692 109.41C42.022 109.41 39.7949 107.183 39.7949 104.437C39.7949 101.69 42.022 99.4635 44.7692 99.4635C47.5165 99.4635 49.7436 101.69 49.7436 104.437C49.7436 107.183 47.5165 109.41 44.7692 109.41Z" fill="#28A034" fill-opacity="0.06"/>
<path d="M24.8718 109.41C22.1245 109.41 19.8974 107.183 19.8974 104.437C19.8974 101.69 22.1245 99.4635 24.8718 99.4635C27.619 99.4635 29.8461 101.69 29.8461 104.437C29.8461 107.183 27.619 109.41 24.8718 109.41Z" fill="#28A034" fill-opacity="0.06"/>
<path d="M4.97433 109.41C2.22708 109.41 0 107.183 0 104.437C0 101.69 2.22708 99.4635 4.97433 99.4635C7.72162 99.4635 9.9487 101.69 9.9487 104.437C9.9487 107.183 7.72162 109.41 4.97433 109.41Z" fill="#28A034" fill-opacity="0.06"/>
<path d="M84.5641 129.303C81.8168 129.303 79.5897 127.076 79.5897 124.329C79.5897 121.583 81.8168 119.356 84.5641 119.356C87.3114 119.356 89.5385 121.583 89.5385 124.329C89.5385 127.076 87.3114 129.303 84.5641 129.303Z" fill="#28A034" fill-opacity="0.06"/>
<path d="M64.6667 129.303C61.9194 129.303 59.6923 127.076 59.6923 124.329C59.6923 121.583 61.9194 119.356 64.6667 119.356C67.4139 119.356 69.641 121.583 69.641 124.329C69.641 127.076 67.4139 129.303 64.6667 129.303Z" fill="#28A034" fill-opacity="0.06"/>
<path d="M44.7692 129.303C42.022 129.303 39.7949 127.076 39.7949 124.329C39.7949 121.583 42.022 119.356 44.7692 119.356C47.5165 119.356 49.7436 121.583 49.7436 124.329C49.7436 127.076 47.5165 129.303 44.7692 129.303Z" fill="#28A034" fill-opacity="0.06"/>
<path d="M24.8718 129.303C22.1245 129.303 19.8974 127.076 19.8974 124.329C19.8974 121.583 22.1245 119.356 24.8718 119.356C27.619 119.356 29.8461 121.583 29.8461 124.329C29.8461 127.076 27.619 129.303 24.8718 129.303Z" fill="#28A034" fill-opacity="0.06"/>
<path d="M4.97433 129.303C2.22708 129.303 0 127.076 0 124.329C0 121.583 2.22708 119.356 4.97433 119.356C7.72162 119.356 9.9487 121.583 9.9487 124.329C9.9487 127.076 7.72162 129.303 4.97433 129.303Z" fill="#28A034" fill-opacity="0.06"/>
<path d="M84.5641 149.195C81.8168 149.195 79.5897 146.969 79.5897 144.222C79.5897 141.475 81.8168 139.249 84.5641 139.249C87.3114 139.249 89.5385 141.475 89.5385 144.222C89.5385 146.969 87.3114 149.195 84.5641 149.195Z" fill="#28A034" fill-opacity="0.06"/>
<path d="M64.6667 149.195C61.9194 149.195 59.6923 146.969 59.6923 144.222C59.6923 141.475 61.9194 139.249 64.6667 139.249C67.4139 139.249 69.641 141.475 69.641 144.222C69.641 146.969 67.4139 149.195 64.6667 149.195Z" fill="#28A034" fill-opacity="0.06"/>
<path d="M44.7692 149.195C42.022 149.195 39.7949 146.969 39.7949 144.222C39.7949 141.475 42.022 139.249 44.7692 139.249C47.5165 139.249 49.7436 141.475 49.7436 144.222C49.7436 146.969 47.5165 149.195 44.7692 149.195Z" fill="#28A034" fill-opacity="0.06"/>
<path d="M24.8718 149.195C22.1245 149.195 19.8974 146.969 19.8974 144.222C19.8974 141.475 22.1245 139.249 24.8718 139.249C27.619 139.249 29.8461 141.475 29.8461 144.222C29.8461 146.969 27.619 149.195 24.8718 149.195Z" fill="#28A034" fill-opacity="0.06"/>
<path d="M4.97433 149.195C2.22708 149.195 0 146.969 0 144.222C0 141.475 2.22708 139.249 4.97433 139.249C7.72162 139.249 9.9487 141.475 9.9487 144.222C9.9487 146.969 7.72162 149.195 4.97433 149.195Z" fill="#28A034" fill-opacity="0.06"/>
<path d="M283.538 169.751C280.791 169.751 278.564 167.525 278.564 164.778C278.564 162.031 280.791 159.805 283.538 159.805C286.286 159.805 288.513 162.031 288.513 164.778C288.513 167.525 286.286 169.751 283.538 169.751Z" fill="#28A034" fill-opacity="0.06"/>
<path d="M263.641 169.751C260.894 169.751 258.667 167.525 258.667 164.778C258.667 162.031 260.894 159.805 263.641 159.805C266.388 159.805 268.615 162.031 268.615 164.778C268.615 167.525 266.388 169.751 263.641 169.751Z" fill="#28A034" fill-opacity="0.06"/>
<path d="M243.744 169.751C240.996 169.751 238.769 167.525 238.769 164.778C238.769 162.031 240.996 159.805 243.744 159.805C246.491 159.805 248.718 162.031 248.718 164.778C248.718 167.525 246.491 169.751 243.744 169.751Z" fill="#28A034" fill-opacity="0.06"/>
<path d="M223.846 169.751C221.099 169.751 218.872 167.525 218.872 164.778C218.872 162.031 221.099 159.805 223.846 159.805C226.593 159.805 228.821 162.031 228.821 164.778C228.821 167.525 226.593 169.751 223.846 169.751Z" fill="#28A034" fill-opacity="0.06"/>
<path d="M203.949 169.751C201.201 169.751 198.974 167.525 198.974 164.778C198.974 162.031 201.201 159.805 203.949 159.805C206.696 159.805 208.923 162.031 208.923 164.778C208.923 167.525 206.696 169.751 203.949 169.751Z" fill="#28A034" fill-opacity="0.06"/>
<path d="M283.538 189.644C280.791 189.644 278.564 187.417 278.564 184.671C278.564 181.924 280.791 179.697 283.538 179.697C286.286 179.697 288.513 181.924 288.513 184.671C288.513 187.417 286.286 189.644 283.538 189.644Z" fill="#28A034" fill-opacity="0.06"/>
<path d="M263.641 189.644C260.894 189.644 258.667 187.417 258.667 184.671C258.667 181.924 260.894 179.697 263.641 179.697C266.388 179.697 268.615 181.924 268.615 184.671C268.615 187.417 266.388 189.644 263.641 189.644Z" fill="#28A034" fill-opacity="0.06"/>
<path d="M243.744 189.644C240.996 189.644 238.769 187.417 238.769 184.671C238.769 181.924 240.996 179.697 243.744 179.697C246.491 179.697 248.718 181.924 248.718 184.671C248.718 187.417 246.491 189.644 243.744 189.644Z" fill="#28A034" fill-opacity="0.06"/>
<path d="M223.846 189.644C221.099 189.644 218.872 187.417 218.872 184.671C218.872 181.924 221.099 179.697 223.846 179.697C226.593 179.697 228.821 181.924 228.821 184.671C228.821 187.417 226.593 189.644 223.846 189.644Z" fill="#28A034" fill-opacity="0.06"/>
<path d="M203.949 189.644C201.201 189.644 198.974 187.417 198.974 184.671C198.974 181.924 201.201 179.697 203.949 179.697C206.696 179.697 208.923 181.924 208.923 184.671C208.923 187.417 206.696 189.644 203.949 189.644Z" fill="#28A034" fill-opacity="0.06"/>
<path d="M283.538 209.536C280.791 209.536 278.564 207.31 278.564 204.563C278.564 201.817 280.791 199.59 283.538 199.59C286.286 199.59 288.513 201.817 288.513 204.563C288.513 207.31 286.286 209.536 283.538 209.536Z" fill="#28A034" fill-opacity="0.06"/>
<path d="M263.641 209.536C260.894 209.536 258.667 207.31 258.667 204.563C258.667 201.817 260.894 199.59 263.641 199.59C266.388 199.59 268.615 201.817 268.615 204.563C268.615 207.31 266.388 209.536 263.641 209.536Z" fill="#28A034" fill-opacity="0.06"/>
<path d="M243.744 209.536C240.996 209.536 238.769 207.31 238.769 204.563C238.769 201.817 240.996 199.59 243.744 199.59C246.491 199.59 248.718 201.817 248.718 204.563C248.718 207.31 246.491 209.536 243.744 209.536Z" fill="#28A034" fill-opacity="0.06"/>
<path d="M223.846 209.536C221.099 209.536 218.872 207.31 218.872 204.563C218.872 201.817 221.099 199.59 223.846 199.59C226.593 199.59 228.821 201.817 228.821 204.563C228.821 207.31 226.593 209.536 223.846 209.536Z" fill="#28A034" fill-opacity="0.06"/>
<path d="M203.949 209.536C201.201 209.536 198.974 207.31 198.974 204.563C198.974 201.817 201.201 199.59 203.949 199.59C206.696 199.59 208.923 201.817 208.923 204.563C208.923 207.31 206.696 209.536 203.949 209.536Z" fill="#28A034" fill-opacity="0.06"/>
<path d="M283.538 229.429C280.791 229.429 278.564 227.203 278.564 224.456C278.564 221.709 280.791 219.483 283.538 219.483C286.286 219.483 288.513 221.709 288.513 224.456C288.513 227.203 286.286 229.429 283.538 229.429Z" fill="#28A034" fill-opacity="0.06"/>
<path d="M263.641 229.429C260.894 229.429 258.667 227.203 258.667 224.456C258.667 221.709 260.894 219.483 263.641 219.483C266.388 219.483 268.615 221.709 268.615 224.456C268.615 227.203 266.388 229.429 263.641 229.429Z" fill="#28A034" fill-opacity="0.06"/>
<path d="M243.744 229.429C240.996 229.429 238.769 227.203 238.769 224.456C238.769 221.709 240.996 219.483 243.744 219.483C246.491 219.483 248.718 221.709 248.718 224.456C248.718 227.203 246.491 229.429 243.744 229.429Z" fill="#28A034" fill-opacity="0.06"/>
<path d="M223.846 229.429C221.099 229.429 218.872 227.203 218.872 224.456C218.872 221.709 221.099 219.483 223.846 219.483C226.593 219.483 228.821 221.709 228.821 224.456C228.821 227.203 226.593 229.429 223.846 229.429Z" fill="#28A034" fill-opacity="0.06"/>
<path d="M203.949 229.429C201.201 229.429 198.974 227.203 198.974 224.456C198.974 221.709 201.201 219.483 203.949 219.483C206.696 219.483 208.923 221.709 208.923 224.456C208.923 227.203 206.696 229.429 203.949 229.429Z" fill="#28A034" fill-opacity="0.06"/>
<path d="M283.538 249.322C280.791 249.322 278.564 247.095 278.564 244.349C278.564 241.602 280.791 239.376 283.538 239.376C286.286 239.376 288.513 241.602 288.513 244.349C288.513 247.095 286.286 249.322 283.538 249.322Z" fill="#28A034" fill-opacity="0.06"/>
<path d="M263.641 249.322C260.894 249.322 258.667 247.095 258.667 244.349C258.667 241.602 260.894 239.376 263.641 239.376C266.388 239.376 268.615 241.602 268.615 244.349C268.615 247.095 266.388 249.322 263.641 249.322Z" fill="#28A034" fill-opacity="0.06"/>
<path d="M243.744 249.322C240.996 249.322 238.769 247.095 238.769 244.349C238.769 241.602 240.996 239.376 243.744 239.376C246.491 239.376 248.718 241.602 248.718 244.349C248.718 247.095 246.491 249.322 243.744 249.322Z" fill="#28A034" fill-opacity="0.06"/>
<path d="M223.846 249.322C221.099 249.322 218.872 247.095 218.872 244.349C218.872 241.602 221.099 239.376 223.846 239.376C226.593 239.376 228.821 241.602 228.821 244.349C228.821 247.095 226.593 249.322 223.846 249.322Z" fill="#28A034" fill-opacity="0.06"/>
<path d="M203.949 249.322C201.201 249.322 198.974 247.095 198.974 244.349C198.974 241.602 201.201 239.376 203.949 239.376C206.696 239.376 208.923 241.602 208.923 244.349C208.923 247.095 206.696 249.322 203.949 249.322Z" fill="#28A034" fill-opacity="0.06"/>
<path d="M283.538 269.215C280.791 269.215 278.564 266.988 278.564 264.241C278.564 261.495 280.791 259.268 283.538 259.268C286.286 259.268 288.513 261.495 288.513 264.241C288.513 266.988 286.286 269.215 283.538 269.215Z" fill="#28A034" fill-opacity="0.06"/>
<path d="M263.641 269.215C260.894 269.215 258.667 266.988 258.667 264.241C258.667 261.495 260.894 259.268 263.641 259.268C266.388 259.268 268.615 261.495 268.615 264.241C268.615 266.988 266.388 269.215 263.641 269.215Z" fill="#28A034" fill-opacity="0.06"/>
<path d="M243.744 269.215C240.996 269.215 238.769 266.988 238.769 264.241C238.769 261.495 240.996 259.268 243.744 259.268C246.491 259.268 248.718 261.495 248.718 264.241C248.718 266.988 246.491 269.215 243.744 269.215Z" fill="#28A034" fill-opacity="0.06"/>
<path d="M223.846 269.215C221.099 269.215 218.872 266.988 218.872 264.241C218.872 261.495 221.099 259.268 223.846 259.268C226.593 259.268 228.821 261.495 228.821 264.241C228.821 266.988 226.593 269.215 223.846 269.215Z" fill="#28A034" fill-opacity="0.06"/>
<path d="M203.949 269.215C201.201 269.215 198.974 266.988 198.974 264.241C198.974 261.495 201.201 259.268 203.949 259.268C206.696 259.268 208.923 261.495 208.923 264.241C208.923 266.988 206.696 269.215 203.949 269.215Z" fill="#28A034" fill-opacity="0.06"/>
<path d="M283.538 289.107C280.791 289.107 278.564 286.881 278.564 284.134C278.564 281.388 280.791 279.161 283.538 279.161C286.286 279.161 288.513 281.388 288.513 284.134C288.513 286.881 286.286 289.107 283.538 289.107Z" fill="#28A034" fill-opacity="0.06"/>
<path d="M263.641 289.107C260.894 289.107 258.667 286.881 258.667 284.134C258.667 281.388 260.894 279.161 263.641 279.161C266.388 279.161 268.615 281.388 268.615 284.134C268.615 286.881 266.388 289.107 263.641 289.107Z" fill="#28A034" fill-opacity="0.06"/>
<path d="M243.744 289.107C240.996 289.107 238.769 286.881 238.769 284.134C238.769 281.388 240.996 279.161 243.744 279.161C246.491 279.161 248.718 281.388 248.718 284.134C248.718 286.881 246.491 289.107 243.744 289.107Z" fill="#28A034" fill-opacity="0.06"/>
<path d="M223.846 289.107C221.099 289.107 218.872 286.881 218.872 284.134C218.872 281.388 221.099 279.161 223.846 279.161C226.593 279.161 228.821 281.388 228.821 284.134C228.821 286.881 226.593 289.107 223.846 289.107Z" fill="#28A034" fill-opacity="0.06"/>
<path d="M203.949 289.107C201.201 289.107 198.974 286.881 198.974 284.134C198.974 281.388 201.201 279.161 203.949 279.161C206.696 279.161 208.923 281.388 208.923 284.134C208.923 286.881 206.696 289.107 203.949 289.107Z" fill="#28A034" fill-opacity="0.06"/>
<path d="M283.538 309C280.791 309 278.564 306.773 278.564 304.027C278.564 301.28 280.791 299.054 283.538 299.054C286.286 299.054 288.513 301.28 288.513 304.027C288.513 306.773 286.286 309 283.538 309Z" fill="#28A034" fill-opacity="0.06"/>
<path d="M263.641 309C260.894 309 258.667 306.773 258.667 304.027C258.667 301.28 260.894 299.054 263.641 299.054C266.388 299.054 268.615 301.28 268.615 304.027C268.615 306.773 266.388 309 263.641 309Z" fill="#28A034" fill-opacity="0.06"/>
<path d="M243.744 309C240.996 309 238.769 306.773 238.769 304.027C238.769 301.28 240.996 299.054 243.744 299.054C246.491 299.054 248.718 301.28 248.718 304.027C248.718 306.773 246.491 309 243.744 309Z" fill="#28A034" fill-opacity="0.06"/>
<path d="M223.846 309C221.099 309 218.872 306.773 218.872 304.027C218.872 301.28 221.099 299.054 223.846 299.054C226.593 299.054 228.821 301.28 228.821 304.027C228.821 306.773 226.593 309 223.846 309Z" fill="#28A034" fill-opacity="0.06"/>
<path d="M203.949 309C201.201 309 198.974 306.773 198.974 304.027C198.974 301.28 201.201 299.054 203.949 299.054C206.696 299.054 208.923 301.28 208.923 304.027C208.923 306.773 206.696 309 203.949 309Z" fill="#28A034" fill-opacity="0.06"/>
<path d="M84.5641 169.751C81.8168 169.751 79.5897 167.525 79.5897 164.778C79.5897 162.031 81.8168 159.805 84.5641 159.805C87.3114 159.805 89.5385 162.031 89.5385 164.778C89.5385 167.525 87.3114 169.751 84.5641 169.751Z" fill="#28A034" fill-opacity="0.06"/>
<path d="M64.6667 169.751C61.9194 169.751 59.6923 167.525 59.6923 164.778C59.6923 162.031 61.9194 159.805 64.6667 159.805C67.4139 159.805 69.641 162.031 69.641 164.778C69.641 167.525 67.4139 169.751 64.6667 169.751Z" fill="#28A034" fill-opacity="0.06"/>
<path d="M44.7692 169.751C42.022 169.751 39.7949 167.525 39.7949 164.778C39.7949 162.031 42.022 159.805 44.7692 159.805C47.5165 159.805 49.7436 162.031 49.7436 164.778C49.7436 167.525 47.5165 169.751 44.7692 169.751Z" fill="#28A034" fill-opacity="0.06"/>
<path d="M24.8718 169.751C22.1245 169.751 19.8974 167.525 19.8974 164.778C19.8974 162.031 22.1245 159.805 24.8718 159.805C27.619 159.805 29.8461 162.031 29.8461 164.778C29.8461 167.525 27.619 169.751 24.8718 169.751Z" fill="#28A034" fill-opacity="0.06"/>
<path d="M4.97433 169.751C2.22708 169.751 0 167.525 0 164.778C0 162.031 2.22708 159.805 4.97433 159.805C7.72162 159.805 9.9487 162.031 9.9487 164.778C9.9487 167.525 7.72162 169.751 4.97433 169.751Z" fill="#28A034" fill-opacity="0.06"/>
<path d="M84.5641 189.644C81.8168 189.644 79.5897 187.417 79.5897 184.671C79.5897 181.924 81.8168 179.697 84.5641 179.697C87.3114 179.697 89.5385 181.924 89.5385 184.671C89.5385 187.417 87.3114 189.644 84.5641 189.644Z" fill="#28A034" fill-opacity="0.06"/>
<path d="M64.6667 189.644C61.9194 189.644 59.6923 187.417 59.6923 184.671C59.6923 181.924 61.9194 179.697 64.6667 179.697C67.4139 179.697 69.641 181.924 69.641 184.671C69.641 187.417 67.4139 189.644 64.6667 189.644Z" fill="#28A034" fill-opacity="0.06"/>
<path d="M44.7692 189.644C42.022 189.644 39.7949 187.417 39.7949 184.671C39.7949 181.924 42.022 179.697 44.7692 179.697C47.5165 179.697 49.7436 181.924 49.7436 184.671C49.7436 187.417 47.5165 189.644 44.7692 189.644Z" fill="#28A034" fill-opacity="0.06"/>
<path d="M24.8718 189.644C22.1245 189.644 19.8974 187.417 19.8974 184.671C19.8974 181.924 22.1245 179.697 24.8718 179.697C27.619 179.697 29.8461 181.924 29.8461 184.671C29.8461 187.417 27.619 189.644 24.8718 189.644Z" fill="#28A034" fill-opacity="0.06"/>
<path d="M4.97433 189.644C2.22708 189.644 0 187.417 0 184.671C0 181.924 2.22708 179.697 4.97433 179.697C7.72162 179.697 9.9487 181.924 9.9487 184.671C9.9487 187.417 7.72162 189.644 4.97433 189.644Z" fill="#28A034" fill-opacity="0.06"/>
<path d="M84.5641 209.536C81.8168 209.536 79.5897 207.31 79.5897 204.563C79.5897 201.817 81.8168 199.59 84.5641 199.59C87.3114 199.59 89.5385 201.817 89.5385 204.563C89.5385 207.31 87.3114 209.536 84.5641 209.536Z" fill="#28A034" fill-opacity="0.06"/>
<path d="M64.6667 209.536C61.9194 209.536 59.6923 207.31 59.6923 204.563C59.6923 201.817 61.9194 199.59 64.6667 199.59C67.4139 199.59 69.641 201.817 69.641 204.563C69.641 207.31 67.4139 209.536 64.6667 209.536Z" fill="#28A034" fill-opacity="0.06"/>
<path d="M44.7692 209.536C42.022 209.536 39.7949 207.31 39.7949 204.563C39.7949 201.817 42.022 199.59 44.7692 199.59C47.5165 199.59 49.7436 201.817 49.7436 204.563C49.7436 207.31 47.5165 209.536 44.7692 209.536Z" fill="#28A034" fill-opacity="0.06"/>
<path d="M24.8718 209.536C22.1245 209.536 19.8974 207.31 19.8974 204.563C19.8974 201.817 22.1245 199.59 24.8718 199.59C27.619 199.59 29.8461 201.817 29.8461 204.563C29.8461 207.31 27.619 209.536 24.8718 209.536Z" fill="#28A034" fill-opacity="0.06"/>
<path d="M4.97433 209.536C2.22708 209.536 0 207.31 0 204.563C0 201.817 2.22708 199.59 4.97433 199.59C7.72162 199.59 9.9487 201.817 9.9487 204.563C9.9487 207.31 7.72162 209.536 4.97433 209.536Z" fill="#28A034" fill-opacity="0.06"/>
<path d="M84.5641 229.429C81.8168 229.429 79.5897 227.203 79.5897 224.456C79.5897 221.709 81.8168 219.483 84.5641 219.483C87.3114 219.483 89.5385 221.709 89.5385 224.456C89.5385 227.203 87.3114 229.429 84.5641 229.429Z" fill="#28A034" fill-opacity="0.06"/>
<path d="M64.6667 229.429C61.9194 229.429 59.6923 227.203 59.6923 224.456C59.6923 221.709 61.9194 219.483 64.6667 219.483C67.4139 219.483 69.641 221.709 69.641 224.456C69.641 227.203 67.4139 229.429 64.6667 229.429Z" fill="#28A034" fill-opacity="0.06"/>
<path d="M44.7692 229.429C42.022 229.429 39.7949 227.203 39.7949 224.456C39.7949 221.709 42.022 219.483 44.7692 219.483C47.5165 219.483 49.7436 221.709 49.7436 224.456C49.7436 227.203 47.5165 229.429 44.7692 229.429Z" fill="#28A034" fill-opacity="0.06"/>
<path d="M24.8718 229.429C22.1245 229.429 19.8974 227.203 19.8974 224.456C19.8974 221.709 22.1245 219.483 24.8718 219.483C27.619 219.483 29.8461 221.709 29.8461 224.456C29.8461 227.203 27.619 229.429 24.8718 229.429Z" fill="#28A034" fill-opacity="0.06"/>
<path d="M4.97433 229.429C2.22708 229.429 0 227.203 0 224.456C0 221.709 2.22708 219.483 4.97433 219.483C7.72162 219.483 9.9487 221.709 9.9487 224.456C9.9487 227.203 7.72162 229.429 4.97433 229.429Z" fill="#28A034" fill-opacity="0.06"/>
<path d="M84.5641 249.322C81.8168 249.322 79.5897 247.095 79.5897 244.349C79.5897 241.602 81.8168 239.376 84.5641 239.376C87.3114 239.376 89.5385 241.602 89.5385 244.349C89.5385 247.095 87.3114 249.322 84.5641 249.322Z" fill="#28A034" fill-opacity="0.06"/>
<path d="M64.6667 249.322C61.9194 249.322 59.6923 247.095 59.6923 244.349C59.6923 241.602 61.9194 239.376 64.6667 239.376C67.4139 239.376 69.641 241.602 69.641 244.349C69.641 247.095 67.4139 249.322 64.6667 249.322Z" fill="#28A034" fill-opacity="0.06"/>
<path d="M44.7692 249.322C42.022 249.322 39.7949 247.095 39.7949 244.349C39.7949 241.602 42.022 239.376 44.7692 239.376C47.5165 239.376 49.7436 241.602 49.7436 244.349C49.7436 247.095 47.5165 249.322 44.7692 249.322Z" fill="#28A034" fill-opacity="0.06"/>
<path d="M24.8718 249.322C22.1245 249.322 19.8974 247.095 19.8974 244.349C19.8974 241.602 22.1245 239.376 24.8718 239.376C27.619 239.376 29.8461 241.602 29.8461 244.349C29.8461 247.095 27.619 249.322 24.8718 249.322Z" fill="#28A034" fill-opacity="0.06"/>
<path d="M4.97433 249.322C2.22708 249.322 0 247.095 0 244.349C0 241.602 2.22708 239.376 4.97433 239.376C7.72162 239.376 9.9487 241.602 9.9487 244.349C9.9487 247.095 7.72162 249.322 4.97433 249.322Z" fill="#28A034" fill-opacity="0.06"/>
<path d="M84.5641 269.215C81.8168 269.215 79.5897 266.988 79.5897 264.241C79.5897 261.495 81.8168 259.268 84.5641 259.268C87.3114 259.268 89.5385 261.495 89.5385 264.241C89.5385 266.988 87.3114 269.215 84.5641 269.215Z" fill="#28A034" fill-opacity="0.06"/>
<path d="M64.6667 269.215C61.9194 269.215 59.6923 266.988 59.6923 264.241C59.6923 261.495 61.9194 259.268 64.6667 259.268C67.4139 259.268 69.641 261.495 69.641 264.241C69.641 266.988 67.4139 269.215 64.6667 269.215Z" fill="#28A034" fill-opacity="0.06"/>
<path d="M44.7692 269.215C42.022 269.215 39.7949 266.988 39.7949 264.241C39.7949 261.495 42.022 259.268 44.7692 259.268C47.5165 259.268 49.7436 261.495 49.7436 264.241C49.7436 266.988 47.5165 269.215 44.7692 269.215Z" fill="#28A034" fill-opacity="0.06"/>
<path d="M24.8718 269.215C22.1245 269.215 19.8974 266.988 19.8974 264.241C19.8974 261.495 22.1245 259.268 24.8718 259.268C27.619 259.268 29.8461 261.495 29.8461 264.241C29.8461 266.988 27.619 269.215 24.8718 269.215Z" fill="#28A034" fill-opacity="0.06"/>
<path d="M4.97433 269.215C2.22708 269.215 0 266.988 0 264.241C0 261.495 2.22708 259.268 4.97433 259.268C7.72162 259.268 9.9487 261.495 9.9487 264.241C9.9487 266.988 7.72162 269.215 4.97433 269.215Z" fill="#28A034" fill-opacity="0.06"/>
<path d="M84.5641 289.107C81.8168 289.107 79.5897 286.881 79.5897 284.134C79.5897 281.388 81.8168 279.161 84.5641 279.161C87.3114 279.161 89.5385 281.388 89.5385 284.134C89.5385 286.881 87.3114 289.107 84.5641 289.107Z" fill="#28A034" fill-opacity="0.06"/>
<path d="M64.6667 289.107C61.9194 289.107 59.6923 286.881 59.6923 284.134C59.6923 281.388 61.9194 279.161 64.6667 279.161C67.4139 279.161 69.641 281.388 69.641 284.134C69.641 286.881 67.4139 289.107 64.6667 289.107Z" fill="#28A034" fill-opacity="0.06"/>
<path d="M44.7692 289.107C42.022 289.107 39.7949 286.881 39.7949 284.134C39.7949 281.388 42.022 279.161 44.7692 279.161C47.5165 279.161 49.7436 281.388 49.7436 284.134C49.7436 286.881 47.5165 289.107 44.7692 289.107Z" fill="#28A034" fill-opacity="0.06"/>
<path d="M24.8718 289.107C22.1245 289.107 19.8974 286.881 19.8974 284.134C19.8974 281.388 22.1245 279.161 24.8718 279.161C27.619 279.161 29.8461 281.388 29.8461 284.134C29.8461 286.881 27.619 289.107 24.8718 289.107Z" fill="#28A034" fill-opacity="0.06"/>
<path d="M4.97433 289.107C2.22708 289.107 0 286.881 0 284.134C0 281.388 2.22708 279.161 4.97433 279.161C7.72162 279.161 9.9487 281.388 9.9487 284.134C9.9487 286.881 7.72162 289.107 4.97433 289.107Z" fill="#28A034" fill-opacity="0.06"/>
<path d="M84.5641 309C81.8168 309 79.5897 306.773 79.5897 304.027C79.5897 301.28 81.8168 299.054 84.5641 299.054C87.3114 299.054 89.5385 301.28 89.5385 304.027C89.5385 306.773 87.3114 309 84.5641 309Z" fill="#28A034" fill-opacity="0.06"/>
<path d="M64.6667 309C61.9194 309 59.6923 306.773 59.6923 304.027C59.6923 301.28 61.9194 299.054 64.6667 299.054C67.4139 299.054 69.641 301.28 69.641 304.027C69.641 306.773 67.4139 309 64.6667 309Z" fill="#28A034" fill-opacity="0.06"/>
<path d="M44.7692 309C42.022 309 39.7949 306.773 39.7949 304.027C39.7949 301.28 42.022 299.054 44.7692 299.054C47.5165 299.054 49.7436 301.28 49.7436 304.027C49.7436 306.773 47.5165 309 44.7692 309Z" fill="#28A034" fill-opacity="0.06"/>
<path d="M24.8718 309C22.1245 309 19.8974 306.773 19.8974 304.027C19.8974 301.28 22.1245 299.054 24.8718 299.054C27.619 299.054 29.8461 301.28 29.8461 304.027C29.8461 306.773 27.619 309 24.8718 309Z" fill="#28A034" fill-opacity="0.06"/>
<path d="M4.97433 309C2.22708 309 0 306.773 0 304.027C0 301.28 2.22708 299.054 4.97433 299.054C7.72162 299.054 9.9487 301.28 9.9487 304.027C9.9487 306.773 7.72162 309 4.97433 309Z" fill="#28A034" fill-opacity="0.06"/>
</svg>
